M48
; DRILL file {KiCad 8.0.1} date 2024-06-08T21:28:07+0100
; FORMAT={-:-/ absolute / inch / decimal}
; #@! TF.CreationDate,2024-06-08T21:28:07+01:00
; #@! TF.GenerationSoftware,Kicad,Pcbnew,8.0.1
; #@! TF.FileFunction,Plated,1,2,PTH
FMAT,2
INCH
; #@! TA.AperFunction,Plated,PTH,ComponentDrill
T1C0.0300
; #@! TA.AperFunction,Plated,PTH,ComponentDrill
T2C0.0315
; #@! TA.AperFunction,Plated,PTH,ComponentDrill
T3C0.0402
; #@! TA.AperFunction,Plated,PTH,ComponentDrill
T4C0.0433
; #@! TA.AperFunction,Plated,PTH,ComponentDrill
T5C0.0512
; #@! TA.AperFunction,Plated,PTH,ComponentDrill
T6C0.0591
; #@! TA.AperFunction,Plated,PTH,ComponentDrill
T7C0.0827
%
G90
G05
T1
X3.05Y-4.77
X3.05Y-4.8684
X3.05Y-4.9669
X3.05Y-5.0653
X3.05Y-5.1637
X3.05Y-5.2621
T2
X2.7216Y-3.5
X2.82Y-3.5
T3
X3.34Y-3.42
X3.34Y-3.52
X3.34Y-3.62
X3.34Y-3.72
X3.34Y-3.82
X3.34Y-3.92
X3.34Y-4.02
X3.34Y-4.12
X3.34Y-4.22
X3.34Y-4.32
X3.34Y-4.42
X3.34Y-4.52
X3.34Y-4.62
X3.34Y-4.72
X3.34Y-4.82
X3.34Y-4.92
X3.34Y-5.02
X3.34Y-5.12
X3.34Y-5.22
X3.34Y-5.32
X3.59Y-5.3109
X3.69Y-5.3109
X3.79Y-5.3109
X4.04Y-3.42
X4.04Y-3.52
X4.04Y-3.62
X4.04Y-3.72
X4.04Y-3.82
X4.04Y-3.92
X4.04Y-4.02
X4.04Y-4.12
X4.04Y-4.22
X4.04Y-4.32
X4.04Y-4.42
X4.04Y-4.52
X4.04Y-4.62
X4.04Y-4.72
X4.04Y-4.82
X4.04Y-4.92
X4.04Y-5.02
X4.04Y-5.12
X4.04Y-5.22
X4.04Y-5.32
T4
X2.9287Y-4.5439
X3.0173Y-4.5439
X3.1941Y-5.5928
X3.1941Y-5.77
X3.1941Y-5.9828
X3.1941Y-6.16
X3.45Y-5.5928
X3.45Y-5.77
X3.45Y-5.9828
X3.45Y-6.16
X3.7241Y-5.5928
X3.7241Y-5.77
X3.7241Y-5.9828
X3.7241Y-6.16
X3.98Y-5.5928
X3.98Y-5.77
X3.98Y-5.9828
X3.98Y-6.16
T5
X2.7024Y-3.7958
X2.9976Y-3.7958
T6
X2.4882Y-5.48
X2.4882Y-6.1887
X3.0Y-5.48
X3.0Y-6.1887
T7
X2.13Y-6.04
X2.14Y-5.64
X2.19Y-3.6987
X2.19Y-4.0058
X2.19Y-4.3129
X2.19Y-4.62
M30
