%TF.GenerationSoftware,KiCad,Pcbnew,8.0.1*%
%TF.CreationDate,2024-06-08T21:28:12+01:00*%
%TF.ProjectId,Pico_WOL,5069636f-5f57-44f4-9c2e-6b696361645f,rev?*%
%TF.SameCoordinates,Original*%
%TF.FileFunction,Copper,L2,Bot*%
%TF.FilePolarity,Positive*%
%FSLAX46Y46*%
G04 Gerber Fmt 4.6, Leading zero omitted, Abs format (unit mm)*
G04 Created by KiCad (PCBNEW 8.0.1) date 2024-06-08 21:28:12*
%MOMM*%
%LPD*%
G01*
G04 APERTURE LIST*
G04 Aperture macros list*
%AMRoundRect*
0 Rectangle with rounded corners*
0 $1 Rounding radius*
0 $2 $3 $4 $5 $6 $7 $8 $9 X,Y pos of 4 corners*
0 Add a 4 corners polygon primitive as box body*
4,1,4,$2,$3,$4,$5,$6,$7,$8,$9,$2,$3,0*
0 Add four circle primitives for the rounded corners*
1,1,$1+$1,$2,$3*
1,1,$1+$1,$4,$5*
1,1,$1+$1,$6,$7*
1,1,$1+$1,$8,$9*
0 Add four rect primitives between the rounded corners*
20,1,$1+$1,$2,$3,$4,$5,0*
20,1,$1+$1,$4,$5,$6,$7,0*
20,1,$1+$1,$6,$7,$8,$9,0*
20,1,$1+$1,$8,$9,$2,$3,0*%
G04 Aperture macros list end*
%TA.AperFunction,ComponentPad*%
%ADD10C,2.000000*%
%TD*%
%TA.AperFunction,ComponentPad*%
%ADD11C,2.500000*%
%TD*%
%TA.AperFunction,ComponentPad*%
%ADD12C,3.200000*%
%TD*%
%TA.AperFunction,ComponentPad*%
%ADD13RoundRect,0.250002X-1.699998X1.699998X-1.699998X-1.699998X1.699998X-1.699998X1.699998X1.699998X0*%
%TD*%
%TA.AperFunction,ComponentPad*%
%ADD14O,1.700000X1.700000*%
%TD*%
%TA.AperFunction,ComponentPad*%
%ADD15R,1.700000X1.700000*%
%TD*%
%TA.AperFunction,ComponentPad*%
%ADD16C,1.524000*%
%TD*%
%TA.AperFunction,ComponentPad*%
%ADD17RoundRect,0.250002X1.699998X-1.699998X1.699998X1.699998X-1.699998X1.699998X-1.699998X-1.699998X0*%
%TD*%
%TA.AperFunction,ComponentPad*%
%ADD18C,3.900000*%
%TD*%
%TA.AperFunction,ComponentPad*%
%ADD19R,1.600000X1.600000*%
%TD*%
%TA.AperFunction,ComponentPad*%
%ADD20C,1.600000*%
%TD*%
%TA.AperFunction,Conductor*%
%ADD21C,0.200000*%
%TD*%
G04 APERTURE END LIST*
D10*
%TO.P,U5,1,V_IN-*%
%TO.N,Net-(J2-Pin_1)*%
X74390000Y-115414000D03*
%TO.P,U5,2,V_IN+*%
%TO.N,Net-(J1-Pin_1)*%
X76640000Y-115414000D03*
D11*
%TO.P,U5,3,V_OUT+*%
%TO.N,Net-(J3-Pin_3)*%
X68640000Y-96414000D03*
%TO.P,U5,4,V_OUT-*%
%TO.N,GND*%
X76140000Y-96414000D03*
%TD*%
D10*
%TO.P,SW3,1,1*%
%TO.N,Net-(U1-GPIO19)*%
X94592000Y-142058000D03*
X101092000Y-142058000D03*
%TO.P,SW3,2,2*%
%TO.N,+3.3V*%
X94592000Y-146558000D03*
X101092000Y-146558000D03*
%TD*%
D12*
%TO.P,U4,1,V_IN+*%
%TO.N,unconnected-(U4-V_IN+-Pad1)*%
X63200000Y-157192000D03*
%TO.P,U4,2,V_IN-*%
%TO.N,unconnected-(U4-V_IN--Pad2)*%
X76200000Y-157192000D03*
%TO.P,U4,3,BAT+*%
%TO.N,Net-(J1-Pin_1)*%
X63200000Y-139192000D03*
%TO.P,U4,4,BAT-*%
%TO.N,Net-(J2-Pin_1)*%
X76200000Y-139192000D03*
%TD*%
D10*
%TO.P,SW4,1,1*%
%TO.N,Net-(U1-GPIO18)*%
X94592000Y-151964000D03*
X101092000Y-151964000D03*
%TO.P,SW4,2,2*%
%TO.N,+3.3V*%
X94592000Y-156464000D03*
X101092000Y-156464000D03*
%TD*%
D13*
%TO.P,J2,1,Pin_1*%
%TO.N,Net-(J2-Pin_1)*%
X54102000Y-153416000D03*
%TD*%
D14*
%TO.P,U1,1,GPIO0*%
%TO.N,unconnected-(U1-GPIO0-Pad1)*%
X84836000Y-86868000D03*
%TO.P,U1,2,GPIO1*%
%TO.N,unconnected-(U1-GPIO1-Pad2)*%
X84836000Y-89408000D03*
D15*
%TO.P,U1,3,GND*%
%TO.N,unconnected-(U1-GND-Pad3)*%
X84836000Y-91948000D03*
D14*
%TO.P,U1,4,GPIO2*%
%TO.N,unconnected-(U1-GPIO2-Pad4)*%
X84836000Y-94488000D03*
%TO.P,U1,5,GPIO3*%
%TO.N,unconnected-(U1-GPIO3-Pad5)*%
X84836000Y-97028000D03*
%TO.P,U1,6,GPIO4*%
%TO.N,unconnected-(U1-GPIO4-Pad6)*%
X84836000Y-99568000D03*
%TO.P,U1,7,GPIO5*%
%TO.N,unconnected-(U1-GPIO5-Pad7)*%
X84836000Y-102108000D03*
D15*
%TO.P,U1,8,GND*%
%TO.N,GND*%
X84836000Y-104648000D03*
D14*
%TO.P,U1,9,GPIO6*%
%TO.N,unconnected-(U1-GPIO6-Pad9)*%
X84836000Y-107188000D03*
%TO.P,U1,10,GPIO7*%
%TO.N,unconnected-(U1-GPIO7-Pad10)*%
X84836000Y-109728000D03*
%TO.P,U1,11,GPIO8*%
%TO.N,unconnected-(U1-GPIO8-Pad11)*%
X84836000Y-112268000D03*
%TO.P,U1,12,GPIO9*%
%TO.N,unconnected-(U1-GPIO9-Pad12)*%
X84836000Y-114808000D03*
D15*
%TO.P,U1,13,GND*%
%TO.N,unconnected-(U1-GND-Pad13)*%
X84836000Y-117348000D03*
D14*
%TO.P,U1,14,GPIO10*%
%TO.N,Net-(U1-GPIO10)*%
X84836000Y-119888000D03*
%TO.P,U1,15,GPIO11*%
%TO.N,Net-(U1-GPIO11)*%
X84836000Y-122428000D03*
%TO.P,U1,16,GPIO12*%
%TO.N,Net-(U1-GPIO12)*%
X84836000Y-124968000D03*
%TO.P,U1,17,GPIO13*%
%TO.N,Net-(U1-GPIO13)*%
X84836000Y-127508000D03*
D15*
%TO.P,U1,18,GND*%
%TO.N,unconnected-(U1-GND-Pad18)*%
X84836000Y-130048000D03*
D14*
%TO.P,U1,19,GPIO14*%
%TO.N,Net-(U1-GPIO14)*%
X84836000Y-132588000D03*
%TO.P,U1,20,GPIO15*%
%TO.N,Net-(U1-GPIO15)*%
X84836000Y-135128000D03*
%TO.P,U1,21,GPIO16*%
%TO.N,Net-(J3-Pin_1)*%
X102616000Y-135128000D03*
%TO.P,U1,22,GPIO17*%
%TO.N,Net-(J3-Pin_2)*%
X102616000Y-132588000D03*
D15*
%TO.P,U1,23,GND*%
%TO.N,unconnected-(U1-GND-Pad23)*%
X102616000Y-130048000D03*
D14*
%TO.P,U1,24,GPIO18*%
%TO.N,Net-(U1-GPIO18)*%
X102616000Y-127508000D03*
%TO.P,U1,25,GPIO19*%
%TO.N,Net-(U1-GPIO19)*%
X102616000Y-124968000D03*
%TO.P,U1,26,GPIO20*%
%TO.N,unconnected-(U1-GPIO20-Pad26)*%
X102616000Y-122428000D03*
%TO.P,U1,27,GPIO21*%
%TO.N,unconnected-(U1-GPIO21-Pad27)*%
X102616000Y-119888000D03*
D15*
%TO.P,U1,28,GND*%
%TO.N,unconnected-(U1-GND-Pad28)*%
X102616000Y-117348000D03*
D14*
%TO.P,U1,29,GPIO22*%
%TO.N,unconnected-(U1-GPIO22-Pad29)*%
X102616000Y-114808000D03*
%TO.P,U1,30,RUN*%
%TO.N,unconnected-(U1-RUN-Pad30)*%
X102616000Y-112268000D03*
%TO.P,U1,31,GPIO26_ADC0*%
%TO.N,unconnected-(U1-GPIO26_ADC0-Pad31)*%
X102616000Y-109728000D03*
%TO.P,U1,32,GPIO27_ADC1*%
%TO.N,unconnected-(U1-GPIO27_ADC1-Pad32)*%
X102616000Y-107188000D03*
D15*
%TO.P,U1,33,AGND*%
%TO.N,unconnected-(U1-AGND-Pad33)*%
X102616000Y-104648000D03*
D14*
%TO.P,U1,34,GPIO28_ADC2*%
%TO.N,unconnected-(U1-GPIO28_ADC2-Pad34)*%
X102616000Y-102108000D03*
%TO.P,U1,35,ADC_VREF*%
%TO.N,unconnected-(U1-ADC_VREF-Pad35)*%
X102616000Y-99568000D03*
%TO.P,U1,36,3V3*%
%TO.N,+3.3V*%
X102616000Y-97028000D03*
%TO.P,U1,37,3V3_EN*%
%TO.N,unconnected-(U1-3V3_EN-Pad37)*%
X102616000Y-94488000D03*
D15*
%TO.P,U1,38,GND*%
%TO.N,unconnected-(U1-GND-Pad38)*%
X102616000Y-91948000D03*
D14*
%TO.P,U1,39,VSYS*%
%TO.N,Net-(J3-Pin_3)*%
X102616000Y-89408000D03*
%TO.P,U1,40,VBUS*%
%TO.N,unconnected-(U1-VBUS-Pad40)*%
X102616000Y-86868000D03*
%TO.P,U1,41,SWCLK*%
%TO.N,unconnected-(U1-SWCLK-Pad41)*%
X91186000Y-134898000D03*
D15*
%TO.P,U1,42,GND*%
%TO.N,unconnected-(U1-GND-Pad42)*%
X93726000Y-134898000D03*
D14*
%TO.P,U1,43,SWDIO*%
%TO.N,unconnected-(U1-SWDIO-Pad43)*%
X96266000Y-134898000D03*
%TD*%
D16*
%TO.P,U2,1,GND*%
%TO.N,GND*%
X77470000Y-121158000D03*
%TO.P,U2,2,MISO*%
%TO.N,Net-(U1-GPIO12)*%
X77470000Y-123658000D03*
%TO.P,U2,3,CLK*%
%TO.N,Net-(U1-GPIO10)*%
X77470000Y-126158000D03*
%TO.P,U2,4,MOSI*%
%TO.N,Net-(U1-GPIO11)*%
X77470000Y-128658000D03*
%TO.P,U2,5,CS*%
%TO.N,Net-(U1-GPIO13)*%
X77470000Y-131158000D03*
%TO.P,U2,6,VCC*%
%TO.N,+3.3V*%
X77470000Y-133658000D03*
%TD*%
D10*
%TO.P,SW1,1,1*%
%TO.N,+3.3V*%
X81130000Y-142058000D03*
X87630000Y-142058000D03*
%TO.P,SW1,2,2*%
%TO.N,Net-(U1-GPIO14)*%
X81130000Y-146558000D03*
X87630000Y-146558000D03*
%TD*%
D17*
%TO.P,J1,1,Pin_1*%
%TO.N,Net-(J1-Pin_1)*%
X54356000Y-143256000D03*
%TD*%
D10*
%TO.P,SW2,1,1*%
%TO.N,+3.3V*%
X81130000Y-151964000D03*
X87630000Y-151964000D03*
%TO.P,SW2,2,2*%
%TO.N,Net-(U1-GPIO15)*%
X81130000Y-156464000D03*
X87630000Y-156464000D03*
%TD*%
D17*
%TO.P,J3,1,Pin_1*%
%TO.N,Net-(J3-Pin_1)*%
X55626000Y-117348000D03*
D18*
%TO.P,J3,2,Pin_2*%
%TO.N,Net-(J3-Pin_2)*%
X55626000Y-109548000D03*
%TO.P,J3,3,Pin_3*%
%TO.N,Net-(J3-Pin_3)*%
X55626000Y-101748000D03*
%TO.P,J3,4,Pin_4*%
%TO.N,GND*%
X55626000Y-93948000D03*
%TD*%
D19*
%TO.P,C1,1*%
%TO.N,Net-(J3-Pin_3)*%
X69128000Y-88900000D03*
D20*
%TO.P,C1,2*%
%TO.N,GND*%
X71628000Y-88900000D03*
%TD*%
D21*
%TO.N,Net-(U1-GPIO14)*%
X85986000Y-133738000D02*
X85986000Y-144914000D01*
X84836000Y-132588000D02*
X85986000Y-133738000D01*
X85986000Y-144914000D02*
X87630000Y-146558000D01*
%TO.N,Net-(U1-GPIO15)*%
X84836000Y-135128000D02*
X84836000Y-153670000D01*
X84836000Y-153670000D02*
X87630000Y-156464000D01*
%TO.N,Net-(U1-GPIO12)*%
X77470000Y-123658000D02*
X81080000Y-123658000D01*
X81080000Y-123658000D02*
X82390000Y-124968000D01*
X82390000Y-124968000D02*
X84836000Y-124968000D01*
%TO.N,Net-(J3-Pin_1)*%
X56776000Y-118498000D02*
X85986000Y-118498000D01*
X85986000Y-118498000D02*
X102333157Y-134845157D01*
X55626000Y-117348000D02*
X56776000Y-118498000D01*
%TO.N,Net-(J3-Pin_2)*%
X55626000Y-109548000D02*
X62343000Y-116265000D01*
X62343000Y-116265000D02*
X83753000Y-116265000D01*
X86106000Y-116078000D02*
X102616000Y-132588000D01*
X83753000Y-116265000D02*
X83940000Y-116078000D01*
X83940000Y-116078000D02*
X86106000Y-116078000D01*
%TD*%
%TA.AperFunction,Conductor*%
%TO.N,GND*%
G36*
X90412737Y-84500501D02*
G01*
X109376025Y-84580514D01*
X109442979Y-84600481D01*
X109488511Y-84653478D01*
X109499500Y-84704513D01*
X109499500Y-155277594D01*
X109479815Y-155344633D01*
X109427011Y-155390388D01*
X109357853Y-155400332D01*
X109294297Y-155371307D01*
X109261641Y-155326708D01*
X109202932Y-155190606D01*
X109185889Y-155151096D01*
X109011130Y-154848404D01*
X109011129Y-154848402D01*
X108802415Y-154568050D01*
X108802410Y-154568044D01*
X108686433Y-154445117D01*
X108562558Y-154313817D01*
X108367948Y-154150520D01*
X108294813Y-154089152D01*
X108294805Y-154089146D01*
X108002796Y-153897088D01*
X107690458Y-153740226D01*
X107690452Y-153740223D01*
X107362012Y-153620681D01*
X107362009Y-153620680D01*
X107021915Y-153540077D01*
X106978519Y-153535004D01*
X106674759Y-153499500D01*
X106325241Y-153499500D01*
X106021480Y-153535004D01*
X105978085Y-153540077D01*
X105978083Y-153540077D01*
X105637990Y-153620680D01*
X105637987Y-153620681D01*
X105309547Y-153740223D01*
X105309541Y-153740226D01*
X104997203Y-153897088D01*
X104705194Y-154089146D01*
X104705186Y-154089152D01*
X104437442Y-154313817D01*
X104437440Y-154313819D01*
X104197589Y-154568044D01*
X104197584Y-154568050D01*
X103988870Y-154848402D01*
X103814113Y-155151091D01*
X103814107Y-155151104D01*
X103675674Y-155472027D01*
X103575430Y-155806865D01*
X103575428Y-155806872D01*
X103514739Y-156151061D01*
X103514738Y-156151072D01*
X103494415Y-156499996D01*
X103494415Y-156500003D01*
X103514738Y-156848927D01*
X103514739Y-156848938D01*
X103575428Y-157193127D01*
X103575430Y-157193134D01*
X103675674Y-157527972D01*
X103814107Y-157848895D01*
X103814113Y-157848908D01*
X103988870Y-158151597D01*
X104197584Y-158431949D01*
X104197589Y-158431955D01*
X104321463Y-158563253D01*
X104437442Y-158686183D01*
X104613903Y-158834251D01*
X104705186Y-158910847D01*
X104705194Y-158910853D01*
X104997203Y-159102911D01*
X104997207Y-159102913D01*
X105309549Y-159259777D01*
X105309557Y-159259779D01*
X105312859Y-159261205D01*
X105312261Y-159262590D01*
X105363621Y-159300408D01*
X105388553Y-159365678D01*
X105374241Y-159434066D01*
X105325227Y-159483860D01*
X105264943Y-159499500D01*
X76650108Y-159499500D01*
X76583069Y-159479815D01*
X76537314Y-159427011D01*
X76527370Y-159357853D01*
X76556395Y-159294297D01*
X76615173Y-159256523D01*
X76624890Y-159254091D01*
X76628347Y-159253372D01*
X76628358Y-159253371D01*
X76905058Y-159175844D01*
X77018015Y-159126779D01*
X77168617Y-159061365D01*
X77168620Y-159061363D01*
X77168625Y-159061361D01*
X77414147Y-158912055D01*
X77637053Y-158730708D01*
X77833189Y-158520698D01*
X77998901Y-158285936D01*
X78131104Y-158030797D01*
X78227334Y-157760032D01*
X78285798Y-157478686D01*
X78305408Y-157192000D01*
X78285798Y-156905314D01*
X78227334Y-156623968D01*
X78220405Y-156604473D01*
X78170483Y-156464005D01*
X79624357Y-156464005D01*
X79644890Y-156711812D01*
X79644892Y-156711824D01*
X79705936Y-156952881D01*
X79805826Y-157180606D01*
X79941833Y-157388782D01*
X79941836Y-157388785D01*
X80110256Y-157571738D01*
X80306491Y-157724474D01*
X80525190Y-157842828D01*
X80760386Y-157923571D01*
X81005665Y-157964500D01*
X81254335Y-157964500D01*
X81499614Y-157923571D01*
X81734810Y-157842828D01*
X81953509Y-157724474D01*
X82149744Y-157571738D01*
X82318164Y-157388785D01*
X82454173Y-157180607D01*
X82554063Y-156952881D01*
X82615108Y-156711821D01*
X82622388Y-156623965D01*
X82635643Y-156464005D01*
X82635643Y-156463994D01*
X82615109Y-156216187D01*
X82615107Y-156216175D01*
X82554063Y-155975118D01*
X82454173Y-155747393D01*
X82318166Y-155539217D01*
X82256313Y-155472027D01*
X82149744Y-155356262D01*
X81953509Y-155203526D01*
X81953507Y-155203525D01*
X81953506Y-155203524D01*
X81734811Y-155085172D01*
X81734802Y-155085169D01*
X81499616Y-155004429D01*
X81254335Y-154963500D01*
X81005665Y-154963500D01*
X80760383Y-155004429D01*
X80525197Y-155085169D01*
X80525188Y-155085172D01*
X80306493Y-155203524D01*
X80110257Y-155356261D01*
X79941833Y-155539217D01*
X79805826Y-155747393D01*
X79705936Y-155975118D01*
X79644892Y-156216175D01*
X79644890Y-156216187D01*
X79624357Y-156463994D01*
X79624357Y-156464005D01*
X78170483Y-156464005D01*
X78131105Y-156353206D01*
X78131106Y-156353206D01*
X77998901Y-156098064D01*
X77833187Y-155863299D01*
X77724937Y-155747393D01*
X77637053Y-155653292D01*
X77414147Y-155471945D01*
X77414146Y-155471944D01*
X77168617Y-155322634D01*
X76905063Y-155208158D01*
X76905061Y-155208157D01*
X76905058Y-155208156D01*
X76754625Y-155166007D01*
X76628364Y-155130630D01*
X76628359Y-155130629D01*
X76628358Y-155130629D01*
X76486018Y-155111064D01*
X76343679Y-155091500D01*
X76343678Y-155091500D01*
X76056322Y-155091500D01*
X76056321Y-155091500D01*
X75771642Y-155130629D01*
X75771635Y-155130630D01*
X75563861Y-155188845D01*
X75494942Y-155208156D01*
X75494939Y-155208156D01*
X75494936Y-155208158D01*
X75494935Y-155208158D01*
X75231382Y-155322634D01*
X74985853Y-155471944D01*
X74762950Y-155653289D01*
X74566812Y-155863299D01*
X74401098Y-156098064D01*
X74268894Y-156353206D01*
X74172667Y-156623962D01*
X74172666Y-156623965D01*
X74114201Y-156905319D01*
X74094592Y-157192000D01*
X74114201Y-157478680D01*
X74114201Y-157478684D01*
X74114202Y-157478686D01*
X74124444Y-157527972D01*
X74172666Y-157760034D01*
X74172667Y-157760037D01*
X74268894Y-158030793D01*
X74268893Y-158030793D01*
X74401098Y-158285935D01*
X74566812Y-158520700D01*
X74651923Y-158611831D01*
X74762947Y-158730708D01*
X74984368Y-158910847D01*
X74985853Y-158912055D01*
X75231382Y-159061365D01*
X75418237Y-159142526D01*
X75494942Y-159175844D01*
X75771642Y-159253371D01*
X75771649Y-159253372D01*
X75775110Y-159254091D01*
X75836745Y-159286998D01*
X75870805Y-159348004D01*
X75866476Y-159417739D01*
X75825132Y-159474064D01*
X75759900Y-159499095D01*
X75749892Y-159499500D01*
X63650108Y-159499500D01*
X63583069Y-159479815D01*
X63537314Y-159427011D01*
X63527370Y-159357853D01*
X63556395Y-159294297D01*
X63615173Y-159256523D01*
X63624890Y-159254091D01*
X63628347Y-159253372D01*
X63628358Y-159253371D01*
X63905058Y-159175844D01*
X64018015Y-159126779D01*
X64168617Y-159061365D01*
X64168620Y-159061363D01*
X64168625Y-159061361D01*
X64414147Y-158912055D01*
X64637053Y-158730708D01*
X64833189Y-158520698D01*
X64998901Y-158285936D01*
X65131104Y-158030797D01*
X65227334Y-157760032D01*
X65285798Y-157478686D01*
X65305408Y-157192000D01*
X65285798Y-156905314D01*
X65227334Y-156623968D01*
X65220405Y-156604473D01*
X65131105Y-156353206D01*
X65131106Y-156353206D01*
X64998901Y-156098064D01*
X64833187Y-155863299D01*
X64724937Y-155747393D01*
X64637053Y-155653292D01*
X64414147Y-155471945D01*
X64414146Y-155471944D01*
X64168617Y-155322634D01*
X63905063Y-155208158D01*
X63905061Y-155208157D01*
X63905058Y-155208156D01*
X63754625Y-155166007D01*
X63628364Y-155130630D01*
X63628359Y-155130629D01*
X63628358Y-155130629D01*
X63486018Y-155111064D01*
X63343679Y-155091500D01*
X63343678Y-155091500D01*
X63056322Y-155091500D01*
X63056321Y-155091500D01*
X62771642Y-155130629D01*
X62771635Y-155130630D01*
X62563861Y-155188845D01*
X62494942Y-155208156D01*
X62494939Y-155208156D01*
X62494936Y-155208158D01*
X62494935Y-155208158D01*
X62231382Y-155322634D01*
X61985853Y-155471944D01*
X61762950Y-155653289D01*
X61566812Y-155863299D01*
X61401098Y-156098064D01*
X61268894Y-156353206D01*
X61172667Y-156623962D01*
X61172666Y-156623965D01*
X61114201Y-156905319D01*
X61094592Y-157192000D01*
X61114201Y-157478680D01*
X61114201Y-157478684D01*
X61114202Y-157478686D01*
X61124444Y-157527972D01*
X61172666Y-157760034D01*
X61172667Y-157760037D01*
X61268894Y-158030793D01*
X61268893Y-158030793D01*
X61401098Y-158285935D01*
X61566812Y-158520700D01*
X61651923Y-158611831D01*
X61762947Y-158730708D01*
X61984368Y-158910847D01*
X61985853Y-158912055D01*
X62231382Y-159061365D01*
X62418237Y-159142526D01*
X62494942Y-159175844D01*
X62771642Y-159253371D01*
X62771649Y-159253372D01*
X62775110Y-159254091D01*
X62836745Y-159286998D01*
X62870805Y-159348004D01*
X62866476Y-159417739D01*
X62825132Y-159474064D01*
X62759900Y-159499095D01*
X62749892Y-159499500D01*
X49654000Y-159499500D01*
X49586961Y-159479815D01*
X49541206Y-159427011D01*
X49530000Y-159375500D01*
X49530000Y-155165999D01*
X51651500Y-155165999D01*
X51651501Y-155166016D01*
X51662000Y-155268795D01*
X51662001Y-155268798D01*
X51717185Y-155435330D01*
X51717187Y-155435335D01*
X51739819Y-155472027D01*
X51809289Y-155584655D01*
X51933345Y-155708711D01*
X52082667Y-155800814D01*
X52249204Y-155855999D01*
X52351993Y-155866500D01*
X55852006Y-155866499D01*
X55954796Y-155855999D01*
X56121333Y-155800814D01*
X56270655Y-155708711D01*
X56394711Y-155584655D01*
X56486814Y-155435333D01*
X56541999Y-155268796D01*
X56552500Y-155166007D01*
X56552499Y-151964005D01*
X79624357Y-151964005D01*
X79644890Y-152211812D01*
X79644892Y-152211824D01*
X79705936Y-152452881D01*
X79805826Y-152680606D01*
X79941833Y-152888782D01*
X79941836Y-152888785D01*
X80110256Y-153071738D01*
X80306491Y-153224474D01*
X80525190Y-153342828D01*
X80760386Y-153423571D01*
X81005665Y-153464500D01*
X81254335Y-153464500D01*
X81499614Y-153423571D01*
X81734810Y-153342828D01*
X81953509Y-153224474D01*
X82149744Y-153071738D01*
X82318164Y-152888785D01*
X82454173Y-152680607D01*
X82554063Y-152452881D01*
X82615108Y-152211821D01*
X82635643Y-151964000D01*
X82615108Y-151716179D01*
X82554063Y-151475119D01*
X82519649Y-151396664D01*
X82454173Y-151247393D01*
X82318166Y-151039217D01*
X82259971Y-150976001D01*
X82149744Y-150856262D01*
X81953509Y-150703526D01*
X81953507Y-150703525D01*
X81953506Y-150703524D01*
X81734811Y-150585172D01*
X81734802Y-150585169D01*
X81499616Y-150504429D01*
X81254335Y-150463500D01*
X81005665Y-150463500D01*
X80760383Y-150504429D01*
X80525197Y-150585169D01*
X80525188Y-150585172D01*
X80306493Y-150703524D01*
X80110257Y-150856261D01*
X79941833Y-151039217D01*
X79805826Y-151247393D01*
X79705936Y-151475118D01*
X79644892Y-151716175D01*
X79644890Y-151716187D01*
X79624357Y-151963994D01*
X79624357Y-151964005D01*
X56552499Y-151964005D01*
X56552499Y-151665994D01*
X56541999Y-151563204D01*
X56486814Y-151396667D01*
X56394711Y-151247345D01*
X56270655Y-151123289D01*
X56177890Y-151066071D01*
X56121335Y-151031187D01*
X56121330Y-151031185D01*
X56119861Y-151030698D01*
X55954796Y-150976001D01*
X55954794Y-150976000D01*
X55852008Y-150965500D01*
X52352000Y-150965500D01*
X52351983Y-150965501D01*
X52249204Y-150976000D01*
X52249201Y-150976001D01*
X52082669Y-151031185D01*
X52082664Y-151031187D01*
X51933343Y-151123290D01*
X51809290Y-151247343D01*
X51717187Y-151396664D01*
X51717186Y-151396667D01*
X51662001Y-151563204D01*
X51662001Y-151563205D01*
X51662000Y-151563205D01*
X51651500Y-151665985D01*
X51651500Y-155165999D01*
X49530000Y-155165999D01*
X49530000Y-146558005D01*
X79624357Y-146558005D01*
X79644890Y-146805812D01*
X79644892Y-146805824D01*
X79705936Y-147046881D01*
X79805826Y-147274606D01*
X79941833Y-147482782D01*
X79941836Y-147482785D01*
X80110256Y-147665738D01*
X80306491Y-147818474D01*
X80525190Y-147936828D01*
X80760386Y-148017571D01*
X81005665Y-148058500D01*
X81254335Y-148058500D01*
X81499614Y-148017571D01*
X81734810Y-147936828D01*
X81953509Y-147818474D01*
X82149744Y-147665738D01*
X82318164Y-147482785D01*
X82454173Y-147274607D01*
X82554063Y-147046881D01*
X82615108Y-146805821D01*
X82635643Y-146558000D01*
X82615108Y-146310179D01*
X82554063Y-146069119D01*
X82454173Y-145841393D01*
X82318166Y-145633217D01*
X82296557Y-145609744D01*
X82149744Y-145450262D01*
X81953509Y-145297526D01*
X81953507Y-145297525D01*
X81953506Y-145297524D01*
X81734811Y-145179172D01*
X81734802Y-145179169D01*
X81499616Y-145098429D01*
X81254335Y-145057500D01*
X81005665Y-145057500D01*
X80760383Y-145098429D01*
X80525197Y-145179169D01*
X80525188Y-145179172D01*
X80306493Y-145297524D01*
X80110257Y-145450261D01*
X79941833Y-145633217D01*
X79805826Y-145841393D01*
X79705936Y-146069118D01*
X79644892Y-146310175D01*
X79644890Y-146310187D01*
X79624357Y-146557994D01*
X79624357Y-146558005D01*
X49530000Y-146558005D01*
X49530000Y-145005999D01*
X51905500Y-145005999D01*
X51905501Y-145006016D01*
X51916000Y-145108795D01*
X51916001Y-145108798D01*
X51971185Y-145275330D01*
X51971187Y-145275335D01*
X51984875Y-145297526D01*
X52063289Y-145424655D01*
X52187345Y-145548711D01*
X52336667Y-145640814D01*
X52503204Y-145695999D01*
X52605993Y-145706500D01*
X56106006Y-145706499D01*
X56208796Y-145695999D01*
X56375333Y-145640814D01*
X56524655Y-145548711D01*
X56648711Y-145424655D01*
X56740814Y-145275333D01*
X56795999Y-145108796D01*
X56806500Y-145006007D01*
X56806499Y-142058005D01*
X79624357Y-142058005D01*
X79644890Y-142305812D01*
X79644892Y-142305824D01*
X79705936Y-142546881D01*
X79805826Y-142774606D01*
X79941833Y-142982782D01*
X79941836Y-142982785D01*
X80110256Y-143165738D01*
X80306491Y-143318474D01*
X80525190Y-143436828D01*
X80760386Y-143517571D01*
X81005665Y-143558500D01*
X81254335Y-143558500D01*
X81499614Y-143517571D01*
X81734810Y-143436828D01*
X81953509Y-143318474D01*
X82149744Y-143165738D01*
X82318164Y-142982785D01*
X82454173Y-142774607D01*
X82554063Y-142546881D01*
X82615108Y-142305821D01*
X82635643Y-142058000D01*
X82615108Y-141810179D01*
X82554063Y-141569119D01*
X82526376Y-141506000D01*
X82454173Y-141341393D01*
X82318166Y-141133217D01*
X82252021Y-141061365D01*
X82149744Y-140950262D01*
X81953509Y-140797526D01*
X81953507Y-140797525D01*
X81953506Y-140797524D01*
X81734811Y-140679172D01*
X81734802Y-140679169D01*
X81499616Y-140598429D01*
X81254335Y-140557500D01*
X81005665Y-140557500D01*
X80760383Y-140598429D01*
X80525197Y-140679169D01*
X80525188Y-140679172D01*
X80306493Y-140797524D01*
X80110257Y-140950261D01*
X79941833Y-141133217D01*
X79805826Y-141341393D01*
X79705936Y-141569118D01*
X79644892Y-141810175D01*
X79644890Y-141810187D01*
X79624357Y-142057994D01*
X79624357Y-142058005D01*
X56806499Y-142058005D01*
X56806499Y-141505994D01*
X56795999Y-141403204D01*
X56740814Y-141236667D01*
X56648711Y-141087345D01*
X56524655Y-140963289D01*
X56375333Y-140871186D01*
X56208796Y-140816001D01*
X56208794Y-140816000D01*
X56106008Y-140805500D01*
X52606000Y-140805500D01*
X52605983Y-140805501D01*
X52503204Y-140816000D01*
X52503201Y-140816001D01*
X52336669Y-140871185D01*
X52336664Y-140871187D01*
X52187343Y-140963290D01*
X52063290Y-141087343D01*
X51971187Y-141236664D01*
X51971186Y-141236667D01*
X51916001Y-141403204D01*
X51916001Y-141403205D01*
X51916000Y-141403205D01*
X51905500Y-141505985D01*
X51905500Y-145005999D01*
X49530000Y-145005999D01*
X49530000Y-139192000D01*
X61094592Y-139192000D01*
X61114201Y-139478680D01*
X61172666Y-139760034D01*
X61172667Y-139760037D01*
X61268894Y-140030793D01*
X61268893Y-140030793D01*
X61401098Y-140285935D01*
X61566812Y-140520700D01*
X61639407Y-140598429D01*
X61762947Y-140730708D01*
X61985853Y-140912055D01*
X62048681Y-140950262D01*
X62231382Y-141061365D01*
X62418237Y-141142526D01*
X62494942Y-141175844D01*
X62771642Y-141253371D01*
X63021920Y-141287771D01*
X63056321Y-141292500D01*
X63056322Y-141292500D01*
X63343679Y-141292500D01*
X63374370Y-141288281D01*
X63628358Y-141253371D01*
X63905058Y-141175844D01*
X64108804Y-141087345D01*
X64168617Y-141061365D01*
X64168620Y-141061363D01*
X64168625Y-141061361D01*
X64414147Y-140912055D01*
X64637053Y-140730708D01*
X64833189Y-140520698D01*
X64998901Y-140285936D01*
X65131104Y-140030797D01*
X65227334Y-139760032D01*
X65285798Y-139478686D01*
X65305408Y-139192000D01*
X74094592Y-139192000D01*
X74114201Y-139478680D01*
X74172666Y-139760034D01*
X74172667Y-139760037D01*
X74268894Y-140030793D01*
X74268893Y-140030793D01*
X74401098Y-140285935D01*
X74566812Y-140520700D01*
X74639407Y-140598429D01*
X74762947Y-140730708D01*
X74985853Y-140912055D01*
X75048681Y-140950262D01*
X75231382Y-141061365D01*
X75418237Y-141142526D01*
X75494942Y-141175844D01*
X75771642Y-141253371D01*
X76021920Y-141287771D01*
X76056321Y-141292500D01*
X76056322Y-141292500D01*
X76343679Y-141292500D01*
X76374370Y-141288281D01*
X76628358Y-141253371D01*
X76905058Y-141175844D01*
X77108804Y-141087345D01*
X77168617Y-141061365D01*
X77168620Y-141061363D01*
X77168625Y-141061361D01*
X77414147Y-140912055D01*
X77637053Y-140730708D01*
X77833189Y-140520698D01*
X77998901Y-140285936D01*
X78131104Y-140030797D01*
X78227334Y-139760032D01*
X78285798Y-139478686D01*
X78305408Y-139192000D01*
X78285798Y-138905314D01*
X78227334Y-138623968D01*
X78131105Y-138353206D01*
X78131106Y-138353206D01*
X77998901Y-138098064D01*
X77833187Y-137863299D01*
X77754554Y-137779105D01*
X77637053Y-137653292D01*
X77414147Y-137471945D01*
X77414146Y-137471944D01*
X77168617Y-137322634D01*
X76905063Y-137208158D01*
X76905061Y-137208157D01*
X76905058Y-137208156D01*
X76775578Y-137171877D01*
X76628364Y-137130630D01*
X76628359Y-137130629D01*
X76628358Y-137130629D01*
X76486018Y-137111064D01*
X76343679Y-137091500D01*
X76343678Y-137091500D01*
X76056322Y-137091500D01*
X76056321Y-137091500D01*
X75771642Y-137130629D01*
X75771635Y-137130630D01*
X75563861Y-137188845D01*
X75494942Y-137208156D01*
X75494939Y-137208156D01*
X75494936Y-137208158D01*
X75494935Y-137208158D01*
X75231382Y-137322634D01*
X74985853Y-137471944D01*
X74762950Y-137653289D01*
X74566812Y-137863299D01*
X74401098Y-138098064D01*
X74268894Y-138353206D01*
X74172667Y-138623962D01*
X74172666Y-138623965D01*
X74114201Y-138905319D01*
X74094592Y-139192000D01*
X65305408Y-139192000D01*
X65285798Y-138905314D01*
X65227334Y-138623968D01*
X65131105Y-138353206D01*
X65131106Y-138353206D01*
X64998901Y-138098064D01*
X64833187Y-137863299D01*
X64754554Y-137779105D01*
X64637053Y-137653292D01*
X64414147Y-137471945D01*
X64414146Y-137471944D01*
X64168617Y-137322634D01*
X63905063Y-137208158D01*
X63905061Y-137208157D01*
X63905058Y-137208156D01*
X63775578Y-137171877D01*
X63628364Y-137130630D01*
X63628359Y-137130629D01*
X63628358Y-137130629D01*
X63486018Y-137111064D01*
X63343679Y-137091500D01*
X63343678Y-137091500D01*
X63056322Y-137091500D01*
X63056321Y-137091500D01*
X62771642Y-137130629D01*
X62771635Y-137130630D01*
X62563861Y-137188845D01*
X62494942Y-137208156D01*
X62494939Y-137208156D01*
X62494936Y-137208158D01*
X62494935Y-137208158D01*
X62231382Y-137322634D01*
X61985853Y-137471944D01*
X61762950Y-137653289D01*
X61566812Y-137863299D01*
X61401098Y-138098064D01*
X61268894Y-138353206D01*
X61172667Y-138623962D01*
X61172666Y-138623965D01*
X61114201Y-138905319D01*
X61094592Y-139192000D01*
X49530000Y-139192000D01*
X49530000Y-109548005D01*
X53170655Y-109548005D01*
X53190014Y-109855725D01*
X53190015Y-109855732D01*
X53247795Y-110158623D01*
X53343078Y-110451874D01*
X53343080Y-110451879D01*
X53474362Y-110730867D01*
X53474366Y-110730873D01*
X53639577Y-110991206D01*
X53639579Y-110991209D01*
X53639584Y-110991216D01*
X53836131Y-111228799D01*
X53836132Y-111228800D01*
X54060902Y-111439874D01*
X54060912Y-111439882D01*
X54310348Y-111621108D01*
X54310353Y-111621110D01*
X54310360Y-111621116D01*
X54580565Y-111769663D01*
X54580570Y-111769665D01*
X54580572Y-111769666D01*
X54580573Y-111769667D01*
X54867253Y-111883171D01*
X54867256Y-111883172D01*
X55165910Y-111959853D01*
X55165914Y-111959854D01*
X55230091Y-111967961D01*
X55471816Y-111998499D01*
X55471825Y-111998499D01*
X55471828Y-111998500D01*
X55471830Y-111998500D01*
X55780170Y-111998500D01*
X55780172Y-111998500D01*
X55780175Y-111998499D01*
X55780183Y-111998499D01*
X55962722Y-111975438D01*
X56086086Y-111959854D01*
X56384743Y-111883172D01*
X56384746Y-111883171D01*
X56671426Y-111769667D01*
X56671428Y-111769665D01*
X56671435Y-111769663D01*
X56800846Y-111698517D01*
X56869075Y-111683471D01*
X56934609Y-111707701D01*
X56948264Y-111719499D01*
X61858139Y-116629374D01*
X61858149Y-116629385D01*
X61862479Y-116633715D01*
X61862480Y-116633716D01*
X61974284Y-116745520D01*
X61974286Y-116745521D01*
X61974290Y-116745524D01*
X62111209Y-116824573D01*
X62111216Y-116824577D01*
X62223019Y-116854534D01*
X62263942Y-116865500D01*
X62263943Y-116865500D01*
X73976183Y-116865500D01*
X74016446Y-116872219D01*
X74020383Y-116873570D01*
X74020386Y-116873571D01*
X74265665Y-116914500D01*
X74514335Y-116914500D01*
X74759614Y-116873571D01*
X74760960Y-116873108D01*
X74763554Y-116872219D01*
X74803817Y-116865500D01*
X76226183Y-116865500D01*
X76266446Y-116872219D01*
X76270383Y-116873570D01*
X76270386Y-116873571D01*
X76515665Y-116914500D01*
X76764335Y-116914500D01*
X77009614Y-116873571D01*
X77010960Y-116873108D01*
X77013554Y-116872219D01*
X77053817Y-116865500D01*
X83361500Y-116865500D01*
X83428539Y-116885185D01*
X83474294Y-116937989D01*
X83485500Y-116989500D01*
X83485501Y-117773500D01*
X83465817Y-117840539D01*
X83413013Y-117886294D01*
X83361501Y-117897500D01*
X58200500Y-117897500D01*
X58133461Y-117877815D01*
X58087706Y-117825011D01*
X58076500Y-117773500D01*
X58076499Y-115598000D01*
X58076498Y-115597983D01*
X58065999Y-115495204D01*
X58065998Y-115495201D01*
X58059435Y-115475396D01*
X58010814Y-115328667D01*
X57918711Y-115179345D01*
X57794655Y-115055289D01*
X57645333Y-114963186D01*
X57478796Y-114908001D01*
X57478794Y-114908000D01*
X57376008Y-114897500D01*
X53876000Y-114897500D01*
X53875983Y-114897501D01*
X53773204Y-114908000D01*
X53773201Y-114908001D01*
X53606669Y-114963185D01*
X53606664Y-114963187D01*
X53457343Y-115055290D01*
X53333290Y-115179343D01*
X53241187Y-115328664D01*
X53241186Y-115328667D01*
X53186001Y-115495204D01*
X53186001Y-115495205D01*
X53186000Y-115495205D01*
X53175500Y-115597985D01*
X53175500Y-119097999D01*
X53175501Y-119098016D01*
X53186000Y-119200795D01*
X53186001Y-119200798D01*
X53210558Y-119274905D01*
X53241186Y-119367333D01*
X53333289Y-119516655D01*
X53457345Y-119640711D01*
X53606667Y-119732814D01*
X53773204Y-119787999D01*
X53875993Y-119798500D01*
X57376006Y-119798499D01*
X57478796Y-119787999D01*
X57645333Y-119732814D01*
X57794655Y-119640711D01*
X57918711Y-119516655D01*
X58010814Y-119367333D01*
X58065999Y-119200796D01*
X58065999Y-119200788D01*
X58066910Y-119196541D01*
X58100192Y-119135108D01*
X58161405Y-119101421D01*
X58188162Y-119098500D01*
X83519397Y-119098500D01*
X83586436Y-119118185D01*
X83632191Y-119170989D01*
X83642135Y-119240147D01*
X83631779Y-119274905D01*
X83562097Y-119424335D01*
X83562094Y-119424344D01*
X83500938Y-119652586D01*
X83500936Y-119652596D01*
X83480341Y-119887999D01*
X83480341Y-119888000D01*
X83500936Y-120123403D01*
X83500938Y-120123413D01*
X83562094Y-120351655D01*
X83562096Y-120351659D01*
X83562097Y-120351663D01*
X83661965Y-120565830D01*
X83661967Y-120565834D01*
X83797501Y-120759395D01*
X83797506Y-120759402D01*
X83964597Y-120926493D01*
X83964603Y-120926498D01*
X84150158Y-121056425D01*
X84193783Y-121111002D01*
X84200977Y-121180500D01*
X84169454Y-121242855D01*
X84150158Y-121259575D01*
X83964597Y-121389505D01*
X83797505Y-121556597D01*
X83661965Y-121750169D01*
X83661964Y-121750171D01*
X83562098Y-121964335D01*
X83562094Y-121964344D01*
X83500938Y-122192586D01*
X83500936Y-122192596D01*
X83480341Y-122427999D01*
X83480341Y-122428000D01*
X83500936Y-122663403D01*
X83500938Y-122663413D01*
X83562094Y-122891655D01*
X83562096Y-122891659D01*
X83562097Y-122891663D01*
X83630249Y-123037815D01*
X83661965Y-123105830D01*
X83661967Y-123105834D01*
X83770281Y-123260521D01*
X83790422Y-123289286D01*
X83797501Y-123299395D01*
X83797506Y-123299402D01*
X83964597Y-123466493D01*
X83964603Y-123466498D01*
X84150158Y-123596425D01*
X84193783Y-123651002D01*
X84200977Y-123720500D01*
X84169454Y-123782855D01*
X84150158Y-123799575D01*
X83964597Y-123929505D01*
X83797506Y-124096596D01*
X83661965Y-124290170D01*
X83661962Y-124290175D01*
X83659289Y-124295909D01*
X83613115Y-124348346D01*
X83546909Y-124367500D01*
X82690098Y-124367500D01*
X82623059Y-124347815D01*
X82602417Y-124331181D01*
X81567590Y-123296355D01*
X81567588Y-123296352D01*
X81448717Y-123177481D01*
X81448716Y-123177480D01*
X81361904Y-123127360D01*
X81361904Y-123127359D01*
X81361900Y-123127358D01*
X81311785Y-123098423D01*
X81159057Y-123057499D01*
X81000943Y-123057499D01*
X80993347Y-123057499D01*
X80993331Y-123057500D01*
X78655304Y-123057500D01*
X78588265Y-123037815D01*
X78553729Y-123004623D01*
X78440827Y-122843381D01*
X78440823Y-122843377D01*
X78284620Y-122687174D01*
X78284616Y-122687171D01*
X78284615Y-122687170D01*
X78103666Y-122560468D01*
X78103663Y-122560466D01*
X78103662Y-122560466D01*
X78055691Y-122538096D01*
X78017108Y-122520105D01*
X77964669Y-122473932D01*
X77945517Y-122406739D01*
X77965733Y-122339858D01*
X78017110Y-122295340D01*
X78103412Y-122255097D01*
X78103417Y-122255094D01*
X78168188Y-122209741D01*
X77497448Y-121539000D01*
X77520160Y-121539000D01*
X77617061Y-121513036D01*
X77703940Y-121462876D01*
X77774876Y-121391940D01*
X77825036Y-121305061D01*
X77851000Y-121208160D01*
X77851000Y-121185447D01*
X78521741Y-121856188D01*
X78567094Y-121791417D01*
X78567100Y-121791407D01*
X78660419Y-121591284D01*
X78660424Y-121591270D01*
X78717573Y-121377986D01*
X78717575Y-121377976D01*
X78736821Y-121158000D01*
X78736821Y-121157999D01*
X78717575Y-120938023D01*
X78717573Y-120938013D01*
X78660424Y-120724729D01*
X78660420Y-120724720D01*
X78567096Y-120524586D01*
X78521741Y-120459811D01*
X78521740Y-120459810D01*
X77851000Y-121130551D01*
X77851000Y-121107840D01*
X77825036Y-121010939D01*
X77774876Y-120924060D01*
X77703940Y-120853124D01*
X77617061Y-120802964D01*
X77520160Y-120777000D01*
X77497448Y-120777000D01*
X78168188Y-120106259D01*
X78168187Y-120106258D01*
X78103411Y-120060901D01*
X78103405Y-120060898D01*
X77903284Y-119967580D01*
X77903270Y-119967575D01*
X77689986Y-119910426D01*
X77689976Y-119910424D01*
X77470001Y-119891179D01*
X77469999Y-119891179D01*
X77250023Y-119910424D01*
X77250013Y-119910426D01*
X77036729Y-119967575D01*
X77036720Y-119967579D01*
X76836590Y-120060901D01*
X76771811Y-120106258D01*
X77442553Y-120777000D01*
X77419840Y-120777000D01*
X77322939Y-120802964D01*
X77236060Y-120853124D01*
X77165124Y-120924060D01*
X77114964Y-121010939D01*
X77089000Y-121107840D01*
X77089000Y-121130553D01*
X76418258Y-120459811D01*
X76372901Y-120524590D01*
X76279579Y-120724720D01*
X76279575Y-120724729D01*
X76222426Y-120938013D01*
X76222424Y-120938023D01*
X76203179Y-121157999D01*
X76203179Y-121158000D01*
X76222424Y-121377976D01*
X76222426Y-121377986D01*
X76279575Y-121591270D01*
X76279580Y-121591284D01*
X76372898Y-121791405D01*
X76372901Y-121791411D01*
X76418258Y-121856187D01*
X76418259Y-121856188D01*
X77089000Y-121185447D01*
X77089000Y-121208160D01*
X77114964Y-121305061D01*
X77165124Y-121391940D01*
X77236060Y-121462876D01*
X77322939Y-121513036D01*
X77419840Y-121539000D01*
X77442553Y-121539000D01*
X76771810Y-122209740D01*
X76836589Y-122255098D01*
X76922891Y-122295342D01*
X76975330Y-122341514D01*
X76994482Y-122408708D01*
X76974266Y-122475589D01*
X76922891Y-122520106D01*
X76836340Y-122560465D01*
X76836338Y-122560466D01*
X76655377Y-122687175D01*
X76499175Y-122843377D01*
X76372466Y-123024338D01*
X76372465Y-123024340D01*
X76279107Y-123224548D01*
X76279104Y-123224554D01*
X76221930Y-123437929D01*
X76221929Y-123437937D01*
X76202677Y-123657997D01*
X76202677Y-123658002D01*
X76221929Y-123878062D01*
X76221930Y-123878070D01*
X76279104Y-124091445D01*
X76279105Y-124091447D01*
X76279106Y-124091450D01*
X76357002Y-124258500D01*
X76372466Y-124291662D01*
X76372468Y-124291666D01*
X76499170Y-124472615D01*
X76499175Y-124472621D01*
X76655378Y-124628824D01*
X76655384Y-124628829D01*
X76836333Y-124755531D01*
X76836335Y-124755532D01*
X76836338Y-124755534D01*
X76922299Y-124795618D01*
X76974738Y-124841790D01*
X76993890Y-124908984D01*
X76973674Y-124975865D01*
X76922299Y-125020382D01*
X76836340Y-125060465D01*
X76836338Y-125060466D01*
X76655377Y-125187175D01*
X76499175Y-125343377D01*
X76372466Y-125524338D01*
X76372465Y-125524340D01*
X76279107Y-125724548D01*
X76279104Y-125724554D01*
X76221930Y-125937929D01*
X76221929Y-125937937D01*
X76202677Y-126157997D01*
X76202677Y-126158002D01*
X76221929Y-126378062D01*
X76221930Y-126378070D01*
X76279104Y-126591445D01*
X76279105Y-126591447D01*
X76279106Y-126591450D01*
X76372466Y-126791662D01*
X76372468Y-126791666D01*
X76499170Y-126972615D01*
X76499175Y-126972621D01*
X76655378Y-127128824D01*
X76655384Y-127128829D01*
X76836333Y-127255531D01*
X76836335Y-127255532D01*
X76836338Y-127255534D01*
X76872928Y-127272596D01*
X76922299Y-127295618D01*
X76974738Y-127341790D01*
X76993890Y-127408984D01*
X76973674Y-127475865D01*
X76922299Y-127520382D01*
X76836340Y-127560465D01*
X76836338Y-127560466D01*
X76655377Y-127687175D01*
X76499175Y-127843377D01*
X76372466Y-128024338D01*
X76372465Y-128024340D01*
X76279107Y-128224548D01*
X76279104Y-128224554D01*
X76221930Y-128437929D01*
X76221929Y-128437937D01*
X76202677Y-128657997D01*
X76202677Y-128658002D01*
X76221929Y-128878062D01*
X76221930Y-128878070D01*
X76279104Y-129091445D01*
X76279105Y-129091447D01*
X76279106Y-129091450D01*
X76372466Y-129291662D01*
X76372468Y-129291666D01*
X76499170Y-129472615D01*
X76499175Y-129472621D01*
X76655378Y-129628824D01*
X76655384Y-129628829D01*
X76836333Y-129755531D01*
X76836335Y-129755532D01*
X76836338Y-129755534D01*
X76922299Y-129795618D01*
X76974738Y-129841790D01*
X76993890Y-129908984D01*
X76973674Y-129975865D01*
X76922299Y-130020382D01*
X76836340Y-130060465D01*
X76836338Y-130060466D01*
X76655377Y-130187175D01*
X76499175Y-130343377D01*
X76372466Y-130524338D01*
X76372465Y-130524340D01*
X76279107Y-130724548D01*
X76279104Y-130724554D01*
X76221930Y-130937929D01*
X76221929Y-130937937D01*
X76202677Y-131157997D01*
X76202677Y-131158002D01*
X76221929Y-131378062D01*
X76221930Y-131378070D01*
X76279104Y-131591445D01*
X76279105Y-131591447D01*
X76279106Y-131591450D01*
X76337464Y-131716599D01*
X76372466Y-131791662D01*
X76372468Y-131791666D01*
X76499170Y-131972615D01*
X76499175Y-131972621D01*
X76655378Y-132128824D01*
X76655384Y-132128829D01*
X76836333Y-132255531D01*
X76836335Y-132255532D01*
X76836338Y-132255534D01*
X76922299Y-132295618D01*
X76974738Y-132341790D01*
X76993890Y-132408984D01*
X76973674Y-132475865D01*
X76922299Y-132520382D01*
X76836340Y-132560465D01*
X76836338Y-132560466D01*
X76655377Y-132687175D01*
X76499175Y-132843377D01*
X76372466Y-133024338D01*
X76372465Y-133024340D01*
X76279107Y-133224548D01*
X76279104Y-133224554D01*
X76221930Y-133437929D01*
X76221929Y-133437937D01*
X76202677Y-133657997D01*
X76202677Y-133658002D01*
X76221929Y-133878062D01*
X76221930Y-133878070D01*
X76279104Y-134091445D01*
X76279105Y-134091447D01*
X76279106Y-134091450D01*
X76354594Y-134253335D01*
X76372466Y-134291662D01*
X76372468Y-134291666D01*
X76499170Y-134472615D01*
X76499175Y-134472621D01*
X76655378Y-134628824D01*
X76655384Y-134628829D01*
X76836333Y-134755531D01*
X76836335Y-134755532D01*
X76836338Y-134755534D01*
X77036550Y-134848894D01*
X77249932Y-134906070D01*
X77407123Y-134919822D01*
X77469998Y-134925323D01*
X77470000Y-134925323D01*
X77470002Y-134925323D01*
X77525017Y-134920509D01*
X77690068Y-134906070D01*
X77903450Y-134848894D01*
X78103662Y-134755534D01*
X78284620Y-134628826D01*
X78440826Y-134472620D01*
X78567534Y-134291662D01*
X78660894Y-134091450D01*
X78718070Y-133878068D01*
X78734484Y-133690452D01*
X78737323Y-133658002D01*
X78737323Y-133657997D01*
X78719948Y-133459401D01*
X78718070Y-133437932D01*
X78660894Y-133224550D01*
X78567534Y-133024339D01*
X78440826Y-132843380D01*
X78284620Y-132687174D01*
X78284616Y-132687171D01*
X78284615Y-132687170D01*
X78103666Y-132560468D01*
X78103658Y-132560464D01*
X78017701Y-132520382D01*
X77965261Y-132474210D01*
X77946109Y-132407017D01*
X77966324Y-132340136D01*
X78017701Y-132295618D01*
X78103662Y-132255534D01*
X78284620Y-132128826D01*
X78440826Y-131972620D01*
X78567534Y-131791662D01*
X78660894Y-131591450D01*
X78718070Y-131378068D01*
X78737323Y-131158000D01*
X78718070Y-130937932D01*
X78660894Y-130724550D01*
X78567534Y-130524339D01*
X78440826Y-130343380D01*
X78284620Y-130187174D01*
X78284616Y-130187171D01*
X78284615Y-130187170D01*
X78103666Y-130060468D01*
X78103658Y-130060464D01*
X78017701Y-130020382D01*
X77965261Y-129974210D01*
X77946109Y-129907017D01*
X77966324Y-129840136D01*
X78017701Y-129795618D01*
X78103662Y-129755534D01*
X78284620Y-129628826D01*
X78440826Y-129472620D01*
X78567534Y-129291662D01*
X78660894Y-129091450D01*
X78718070Y-128878068D01*
X78733867Y-128697500D01*
X78737323Y-128658002D01*
X78737323Y-128657997D01*
X78718070Y-128437937D01*
X78718070Y-128437932D01*
X78660894Y-128224550D01*
X78567534Y-128024339D01*
X78440826Y-127843380D01*
X78284620Y-127687174D01*
X78284616Y-127687171D01*
X78284615Y-127687170D01*
X78103666Y-127560468D01*
X78103658Y-127560464D01*
X78017701Y-127520382D01*
X77965261Y-127474210D01*
X77946109Y-127407017D01*
X77966324Y-127340136D01*
X78017701Y-127295618D01*
X78103662Y-127255534D01*
X78284620Y-127128826D01*
X78440826Y-126972620D01*
X78567534Y-126791662D01*
X78660894Y-126591450D01*
X78718070Y-126378068D01*
X78737323Y-126158000D01*
X78735435Y-126136425D01*
X78730103Y-126075474D01*
X78718070Y-125937932D01*
X78660894Y-125724550D01*
X78567534Y-125524339D01*
X78440826Y-125343380D01*
X78284620Y-125187174D01*
X78284616Y-125187171D01*
X78284615Y-125187170D01*
X78103666Y-125060468D01*
X78103658Y-125060464D01*
X78017701Y-125020382D01*
X77965261Y-124974210D01*
X77946109Y-124907017D01*
X77966324Y-124840136D01*
X78017701Y-124795618D01*
X78103662Y-124755534D01*
X78284620Y-124628826D01*
X78440826Y-124472620D01*
X78517196Y-124363550D01*
X78553730Y-124311377D01*
X78608307Y-124267752D01*
X78655305Y-124258500D01*
X80779903Y-124258500D01*
X80846942Y-124278185D01*
X80867583Y-124294818D01*
X82021284Y-125448520D01*
X82021286Y-125448521D01*
X82021290Y-125448524D01*
X82152609Y-125524340D01*
X82158216Y-125527577D01*
X82310943Y-125568501D01*
X82310945Y-125568501D01*
X82476654Y-125568501D01*
X82476670Y-125568500D01*
X83546909Y-125568500D01*
X83613948Y-125588185D01*
X83659292Y-125640097D01*
X83661965Y-125645830D01*
X83717088Y-125724554D01*
X83797501Y-125839395D01*
X83797506Y-125839402D01*
X83964597Y-126006493D01*
X83964603Y-126006498D01*
X84150158Y-126136425D01*
X84193783Y-126191002D01*
X84200977Y-126260500D01*
X84169454Y-126322855D01*
X84150158Y-126339575D01*
X83964597Y-126469505D01*
X83797505Y-126636597D01*
X83661965Y-126830169D01*
X83661964Y-126830171D01*
X83562098Y-127044335D01*
X83562094Y-127044344D01*
X83500938Y-127272586D01*
X83500936Y-127272596D01*
X83480341Y-127507999D01*
X83480341Y-127508000D01*
X83500936Y-127743403D01*
X83500938Y-127743413D01*
X83562094Y-127971655D01*
X83562096Y-127971659D01*
X83562097Y-127971663D01*
X83586661Y-128024340D01*
X83661965Y-128185830D01*
X83661967Y-128185834D01*
X83770281Y-128340521D01*
X83797501Y-128379396D01*
X83797506Y-128379402D01*
X83919430Y-128501326D01*
X83952915Y-128562649D01*
X83947931Y-128632341D01*
X83906059Y-128688274D01*
X83875083Y-128705189D01*
X83743669Y-128754203D01*
X83743664Y-128754206D01*
X83628455Y-128840452D01*
X83628452Y-128840455D01*
X83542206Y-128955664D01*
X83542202Y-128955671D01*
X83491908Y-129090517D01*
X83485501Y-129150116D01*
X83485501Y-129150123D01*
X83485500Y-129150135D01*
X83485500Y-130945870D01*
X83485501Y-130945876D01*
X83491908Y-131005483D01*
X83542202Y-131140328D01*
X83542206Y-131140335D01*
X83628452Y-131255544D01*
X83628455Y-131255547D01*
X83743664Y-131341793D01*
X83743671Y-131341797D01*
X83875081Y-131390810D01*
X83931015Y-131432681D01*
X83955432Y-131498145D01*
X83940580Y-131566418D01*
X83919430Y-131594673D01*
X83797503Y-131716600D01*
X83661965Y-131910169D01*
X83661964Y-131910171D01*
X83562098Y-132124335D01*
X83562094Y-132124344D01*
X83500938Y-132352586D01*
X83500936Y-132352596D01*
X83480341Y-132587999D01*
X83480341Y-132588000D01*
X83500936Y-132823403D01*
X83500938Y-132823413D01*
X83562094Y-133051655D01*
X83562096Y-133051659D01*
X83562097Y-133051663D01*
X83642715Y-133224548D01*
X83661965Y-133265830D01*
X83661967Y-133265834D01*
X83797501Y-133459395D01*
X83797506Y-133459402D01*
X83964597Y-133626493D01*
X83964603Y-133626498D01*
X84150158Y-133756425D01*
X84193783Y-133811002D01*
X84200977Y-133880500D01*
X84169454Y-133942855D01*
X84150158Y-133959575D01*
X83964597Y-134089505D01*
X83797505Y-134256597D01*
X83661965Y-134450169D01*
X83661964Y-134450171D01*
X83562098Y-134664335D01*
X83562094Y-134664344D01*
X83500938Y-134892586D01*
X83500936Y-134892596D01*
X83480341Y-135127999D01*
X83480341Y-135128000D01*
X83500936Y-135363403D01*
X83500938Y-135363413D01*
X83562094Y-135591655D01*
X83562096Y-135591659D01*
X83562097Y-135591663D01*
X83657322Y-135795873D01*
X83661965Y-135805830D01*
X83661967Y-135805834D01*
X83753456Y-135936493D01*
X83797505Y-135999401D01*
X83964599Y-136166495D01*
X84000733Y-136191796D01*
X84158165Y-136302032D01*
X84158167Y-136302033D01*
X84158170Y-136302035D01*
X84163898Y-136304706D01*
X84216339Y-136350872D01*
X84235500Y-136417090D01*
X84235500Y-153583330D01*
X84235499Y-153583348D01*
X84235499Y-153749054D01*
X84235498Y-153749054D01*
X84276423Y-153901785D01*
X84305358Y-153951900D01*
X84305359Y-153951904D01*
X84305360Y-153951904D01*
X84355479Y-154038714D01*
X84355481Y-154038717D01*
X84474349Y-154157585D01*
X84474355Y-154157590D01*
X86173482Y-155856717D01*
X86206967Y-155918040D01*
X86206007Y-155974838D01*
X86144892Y-156216174D01*
X86144890Y-156216187D01*
X86124357Y-156463994D01*
X86124357Y-156464005D01*
X86144890Y-156711812D01*
X86144892Y-156711824D01*
X86205936Y-156952881D01*
X86305826Y-157180606D01*
X86441833Y-157388782D01*
X86441836Y-157388785D01*
X86610256Y-157571738D01*
X86806491Y-157724474D01*
X87025190Y-157842828D01*
X87260386Y-157923571D01*
X87505665Y-157964500D01*
X87754335Y-157964500D01*
X87999614Y-157923571D01*
X88234810Y-157842828D01*
X88453509Y-157724474D01*
X88649744Y-157571738D01*
X88818164Y-157388785D01*
X88954173Y-157180607D01*
X89054063Y-156952881D01*
X89115108Y-156711821D01*
X89122388Y-156623965D01*
X89135643Y-156464005D01*
X93086357Y-156464005D01*
X93106890Y-156711812D01*
X93106892Y-156711824D01*
X93167936Y-156952881D01*
X93267826Y-157180606D01*
X93403833Y-157388782D01*
X93403836Y-157388785D01*
X93572256Y-157571738D01*
X93768491Y-157724474D01*
X93987190Y-157842828D01*
X94222386Y-157923571D01*
X94467665Y-157964500D01*
X94716335Y-157964500D01*
X94961614Y-157923571D01*
X95196810Y-157842828D01*
X95415509Y-157724474D01*
X95611744Y-157571738D01*
X95780164Y-157388785D01*
X95916173Y-157180607D01*
X96016063Y-156952881D01*
X96077108Y-156711821D01*
X96084388Y-156623965D01*
X96097643Y-156464005D01*
X99586357Y-156464005D01*
X99606890Y-156711812D01*
X99606892Y-156711824D01*
X99667936Y-156952881D01*
X99767826Y-157180606D01*
X99903833Y-157388782D01*
X99903836Y-157388785D01*
X100072256Y-157571738D01*
X100268491Y-157724474D01*
X100487190Y-157842828D01*
X100722386Y-157923571D01*
X100967665Y-157964500D01*
X101216335Y-157964500D01*
X101461614Y-157923571D01*
X101696810Y-157842828D01*
X101915509Y-157724474D01*
X102111744Y-157571738D01*
X102280164Y-157388785D01*
X102416173Y-157180607D01*
X102516063Y-156952881D01*
X102577108Y-156711821D01*
X102584388Y-156623965D01*
X102597643Y-156464005D01*
X102597643Y-156463994D01*
X102577109Y-156216187D01*
X102577107Y-156216175D01*
X102516063Y-155975118D01*
X102416173Y-155747393D01*
X102280166Y-155539217D01*
X102218313Y-155472027D01*
X102111744Y-155356262D01*
X101915509Y-155203526D01*
X101915507Y-155203525D01*
X101915506Y-155203524D01*
X101696811Y-155085172D01*
X101696802Y-155085169D01*
X101461616Y-155004429D01*
X101216335Y-154963500D01*
X100967665Y-154963500D01*
X100722383Y-155004429D01*
X100487197Y-155085169D01*
X100487188Y-155085172D01*
X100268493Y-155203524D01*
X100072257Y-155356261D01*
X99903833Y-155539217D01*
X99767826Y-155747393D01*
X99667936Y-155975118D01*
X99606892Y-156216175D01*
X99606890Y-156216187D01*
X99586357Y-156463994D01*
X99586357Y-156464005D01*
X96097643Y-156464005D01*
X96097643Y-156463994D01*
X96077109Y-156216187D01*
X96077107Y-156216175D01*
X96016063Y-155975118D01*
X95916173Y-155747393D01*
X95780166Y-155539217D01*
X95718313Y-155472027D01*
X95611744Y-155356262D01*
X95415509Y-155203526D01*
X95415507Y-155203525D01*
X95415506Y-155203524D01*
X95196811Y-155085172D01*
X95196802Y-155085169D01*
X94961616Y-155004429D01*
X94716335Y-154963500D01*
X94467665Y-154963500D01*
X94222383Y-155004429D01*
X93987197Y-155085169D01*
X93987188Y-155085172D01*
X93768493Y-155203524D01*
X93572257Y-155356261D01*
X93403833Y-155539217D01*
X93267826Y-155747393D01*
X93167936Y-155975118D01*
X93106892Y-156216175D01*
X93106890Y-156216187D01*
X93086357Y-156463994D01*
X93086357Y-156464005D01*
X89135643Y-156464005D01*
X89135643Y-156463994D01*
X89115109Y-156216187D01*
X89115107Y-156216175D01*
X89054063Y-155975118D01*
X88954173Y-155747393D01*
X88818166Y-155539217D01*
X88756313Y-155472027D01*
X88649744Y-155356262D01*
X88453509Y-155203526D01*
X88453507Y-155203525D01*
X88453506Y-155203524D01*
X88234811Y-155085172D01*
X88234802Y-155085169D01*
X87999616Y-155004429D01*
X87754335Y-154963500D01*
X87505665Y-154963500D01*
X87260386Y-155004428D01*
X87154392Y-155040815D01*
X87084593Y-155043964D01*
X87026450Y-155011214D01*
X85472819Y-153457583D01*
X85439334Y-153396260D01*
X85436500Y-153369902D01*
X85436500Y-151964005D01*
X86124357Y-151964005D01*
X86144890Y-152211812D01*
X86144892Y-152211824D01*
X86205936Y-152452881D01*
X86305826Y-152680606D01*
X86441833Y-152888782D01*
X86441836Y-152888785D01*
X86610256Y-153071738D01*
X86806491Y-153224474D01*
X87025190Y-153342828D01*
X87260386Y-153423571D01*
X87505665Y-153464500D01*
X87754335Y-153464500D01*
X87999614Y-153423571D01*
X88234810Y-153342828D01*
X88453509Y-153224474D01*
X88649744Y-153071738D01*
X88818164Y-152888785D01*
X88954173Y-152680607D01*
X89054063Y-152452881D01*
X89115108Y-152211821D01*
X89135643Y-151964005D01*
X93086357Y-151964005D01*
X93106890Y-152211812D01*
X93106892Y-152211824D01*
X93167936Y-152452881D01*
X93267826Y-152680606D01*
X93403833Y-152888782D01*
X93403836Y-152888785D01*
X93572256Y-153071738D01*
X93768491Y-153224474D01*
X93987190Y-153342828D01*
X94222386Y-153423571D01*
X94467665Y-153464500D01*
X94716335Y-153464500D01*
X94961614Y-153423571D01*
X95196810Y-153342828D01*
X95415509Y-153224474D01*
X95611744Y-153071738D01*
X95780164Y-152888785D01*
X95916173Y-152680607D01*
X96016063Y-152452881D01*
X96077108Y-152211821D01*
X96097643Y-151964005D01*
X99586357Y-151964005D01*
X99606890Y-152211812D01*
X99606892Y-152211824D01*
X99667936Y-152452881D01*
X99767826Y-152680606D01*
X99903833Y-152888782D01*
X99903836Y-152888785D01*
X100072256Y-153071738D01*
X100268491Y-153224474D01*
X100487190Y-153342828D01*
X100722386Y-153423571D01*
X100967665Y-153464500D01*
X101216335Y-153464500D01*
X101461614Y-153423571D01*
X101696810Y-153342828D01*
X101915509Y-153224474D01*
X102111744Y-153071738D01*
X102280164Y-152888785D01*
X102416173Y-152680607D01*
X102516063Y-152452881D01*
X102577108Y-152211821D01*
X102597643Y-151964000D01*
X102577108Y-151716179D01*
X102516063Y-151475119D01*
X102481649Y-151396664D01*
X102416173Y-151247393D01*
X102280166Y-151039217D01*
X102221971Y-150976001D01*
X102111744Y-150856262D01*
X101915509Y-150703526D01*
X101915507Y-150703525D01*
X101915506Y-150703524D01*
X101696811Y-150585172D01*
X101696802Y-150585169D01*
X101461616Y-150504429D01*
X101216335Y-150463500D01*
X100967665Y-150463500D01*
X100722383Y-150504429D01*
X100487197Y-150585169D01*
X100487188Y-150585172D01*
X100268493Y-150703524D01*
X100072257Y-150856261D01*
X99903833Y-151039217D01*
X99767826Y-151247393D01*
X99667936Y-151475118D01*
X99606892Y-151716175D01*
X99606890Y-151716187D01*
X99586357Y-151963994D01*
X99586357Y-151964005D01*
X96097643Y-151964005D01*
X96097643Y-151964000D01*
X96077108Y-151716179D01*
X96016063Y-151475119D01*
X95981649Y-151396664D01*
X95916173Y-151247393D01*
X95780166Y-151039217D01*
X95721971Y-150976001D01*
X95611744Y-150856262D01*
X95415509Y-150703526D01*
X95415507Y-150703525D01*
X95415506Y-150703524D01*
X95196811Y-150585172D01*
X95196802Y-150585169D01*
X94961616Y-150504429D01*
X94716335Y-150463500D01*
X94467665Y-150463500D01*
X94222383Y-150504429D01*
X93987197Y-150585169D01*
X93987188Y-150585172D01*
X93768493Y-150703524D01*
X93572257Y-150856261D01*
X93403833Y-151039217D01*
X93267826Y-151247393D01*
X93167936Y-151475118D01*
X93106892Y-151716175D01*
X93106890Y-151716187D01*
X93086357Y-151963994D01*
X93086357Y-151964005D01*
X89135643Y-151964005D01*
X89135643Y-151964000D01*
X89115108Y-151716179D01*
X89054063Y-151475119D01*
X89019649Y-151396664D01*
X88954173Y-151247393D01*
X88818166Y-151039217D01*
X88759971Y-150976001D01*
X88649744Y-150856262D01*
X88453509Y-150703526D01*
X88453507Y-150703525D01*
X88453506Y-150703524D01*
X88234811Y-150585172D01*
X88234802Y-150585169D01*
X87999616Y-150504429D01*
X87754335Y-150463500D01*
X87505665Y-150463500D01*
X87260383Y-150504429D01*
X87025197Y-150585169D01*
X87025188Y-150585172D01*
X86806493Y-150703524D01*
X86610257Y-150856261D01*
X86441833Y-151039217D01*
X86305826Y-151247393D01*
X86205936Y-151475118D01*
X86144892Y-151716175D01*
X86144890Y-151716187D01*
X86124357Y-151963994D01*
X86124357Y-151964005D01*
X85436500Y-151964005D01*
X85436500Y-145513097D01*
X85456185Y-145446058D01*
X85508989Y-145400303D01*
X85578147Y-145390359D01*
X85641703Y-145419384D01*
X85648181Y-145425416D01*
X86173482Y-145950717D01*
X86206967Y-146012040D01*
X86206007Y-146068838D01*
X86144892Y-146310174D01*
X86144890Y-146310187D01*
X86124357Y-146557994D01*
X86124357Y-146558005D01*
X86144890Y-146805812D01*
X86144892Y-146805824D01*
X86205936Y-147046881D01*
X86305826Y-147274606D01*
X86441833Y-147482782D01*
X86441836Y-147482785D01*
X86610256Y-147665738D01*
X86806491Y-147818474D01*
X87025190Y-147936828D01*
X87260386Y-148017571D01*
X87505665Y-148058500D01*
X87754335Y-148058500D01*
X87999614Y-148017571D01*
X88234810Y-147936828D01*
X88453509Y-147818474D01*
X88649744Y-147665738D01*
X88818164Y-147482785D01*
X88954173Y-147274607D01*
X89054063Y-147046881D01*
X89115108Y-146805821D01*
X89135643Y-146558005D01*
X93086357Y-146558005D01*
X93106890Y-146805812D01*
X93106892Y-146805824D01*
X93167936Y-147046881D01*
X93267826Y-147274606D01*
X93403833Y-147482782D01*
X93403836Y-147482785D01*
X93572256Y-147665738D01*
X93768491Y-147818474D01*
X93987190Y-147936828D01*
X94222386Y-148017571D01*
X94467665Y-148058500D01*
X94716335Y-148058500D01*
X94961614Y-148017571D01*
X95196810Y-147936828D01*
X95415509Y-147818474D01*
X95611744Y-147665738D01*
X95780164Y-147482785D01*
X95916173Y-147274607D01*
X96016063Y-147046881D01*
X96077108Y-146805821D01*
X96097643Y-146558005D01*
X99586357Y-146558005D01*
X99606890Y-146805812D01*
X99606892Y-146805824D01*
X99667936Y-147046881D01*
X99767826Y-147274606D01*
X99903833Y-147482782D01*
X99903836Y-147482785D01*
X100072256Y-147665738D01*
X100268491Y-147818474D01*
X100487190Y-147936828D01*
X100722386Y-148017571D01*
X100967665Y-148058500D01*
X101216335Y-148058500D01*
X101461614Y-148017571D01*
X101696810Y-147936828D01*
X101915509Y-147818474D01*
X102111744Y-147665738D01*
X102280164Y-147482785D01*
X102416173Y-147274607D01*
X102516063Y-147046881D01*
X102577108Y-146805821D01*
X102597643Y-146558000D01*
X102577108Y-146310179D01*
X102516063Y-146069119D01*
X102416173Y-145841393D01*
X102280166Y-145633217D01*
X102258557Y-145609744D01*
X102111744Y-145450262D01*
X101915509Y-145297526D01*
X101915507Y-145297525D01*
X101915506Y-145297524D01*
X101696811Y-145179172D01*
X101696802Y-145179169D01*
X101461616Y-145098429D01*
X101216335Y-145057500D01*
X100967665Y-145057500D01*
X100722383Y-145098429D01*
X100487197Y-145179169D01*
X100487188Y-145179172D01*
X100268493Y-145297524D01*
X100072257Y-145450261D01*
X99903833Y-145633217D01*
X99767826Y-145841393D01*
X99667936Y-146069118D01*
X99606892Y-146310175D01*
X99606890Y-146310187D01*
X99586357Y-146557994D01*
X99586357Y-146558005D01*
X96097643Y-146558005D01*
X96097643Y-146558000D01*
X96077108Y-146310179D01*
X96016063Y-146069119D01*
X95916173Y-145841393D01*
X95780166Y-145633217D01*
X95758557Y-145609744D01*
X95611744Y-145450262D01*
X95415509Y-145297526D01*
X95415507Y-145297525D01*
X95415506Y-145297524D01*
X95196811Y-145179172D01*
X95196802Y-145179169D01*
X94961616Y-145098429D01*
X94716335Y-145057500D01*
X94467665Y-145057500D01*
X94222383Y-145098429D01*
X93987197Y-145179169D01*
X93987188Y-145179172D01*
X93768493Y-145297524D01*
X93572257Y-145450261D01*
X93403833Y-145633217D01*
X93267826Y-145841393D01*
X93167936Y-146069118D01*
X93106892Y-146310175D01*
X93106890Y-146310187D01*
X93086357Y-146557994D01*
X93086357Y-146558005D01*
X89135643Y-146558005D01*
X89135643Y-146558000D01*
X89115108Y-146310179D01*
X89054063Y-146069119D01*
X88954173Y-145841393D01*
X88818166Y-145633217D01*
X88796557Y-145609744D01*
X88649744Y-145450262D01*
X88453509Y-145297526D01*
X88453507Y-145297525D01*
X88453506Y-145297524D01*
X88234811Y-145179172D01*
X88234802Y-145179169D01*
X87999616Y-145098429D01*
X87754335Y-145057500D01*
X87505665Y-145057500D01*
X87260382Y-145098429D01*
X87260380Y-145098429D01*
X87154393Y-145134815D01*
X87084595Y-145137965D01*
X87026450Y-145105215D01*
X86622819Y-144701584D01*
X86589334Y-144640261D01*
X86586500Y-144613903D01*
X86586500Y-143400893D01*
X86606185Y-143333854D01*
X86658989Y-143288099D01*
X86728147Y-143278155D01*
X86786661Y-143303039D01*
X86806491Y-143318474D01*
X87025190Y-143436828D01*
X87260386Y-143517571D01*
X87505665Y-143558500D01*
X87754335Y-143558500D01*
X87999614Y-143517571D01*
X88234810Y-143436828D01*
X88453509Y-143318474D01*
X88649744Y-143165738D01*
X88818164Y-142982785D01*
X88954173Y-142774607D01*
X89054063Y-142546881D01*
X89115108Y-142305821D01*
X89135643Y-142058005D01*
X93086357Y-142058005D01*
X93106890Y-142305812D01*
X93106892Y-142305824D01*
X93167936Y-142546881D01*
X93267826Y-142774606D01*
X93403833Y-142982782D01*
X93403836Y-142982785D01*
X93572256Y-143165738D01*
X93768491Y-143318474D01*
X93987190Y-143436828D01*
X94222386Y-143517571D01*
X94467665Y-143558500D01*
X94716335Y-143558500D01*
X94961614Y-143517571D01*
X95196810Y-143436828D01*
X95415509Y-143318474D01*
X95611744Y-143165738D01*
X95780164Y-142982785D01*
X95916173Y-142774607D01*
X96016063Y-142546881D01*
X96077108Y-142305821D01*
X96097643Y-142058005D01*
X99586357Y-142058005D01*
X99606890Y-142305812D01*
X99606892Y-142305824D01*
X99667936Y-142546881D01*
X99767826Y-142774606D01*
X99903833Y-142982782D01*
X99903836Y-142982785D01*
X100072256Y-143165738D01*
X100268491Y-143318474D01*
X100487190Y-143436828D01*
X100722386Y-143517571D01*
X100967665Y-143558500D01*
X101216335Y-143558500D01*
X101461614Y-143517571D01*
X101696810Y-143436828D01*
X101915509Y-143318474D01*
X102111744Y-143165738D01*
X102280164Y-142982785D01*
X102416173Y-142774607D01*
X102516063Y-142546881D01*
X102577108Y-142305821D01*
X102597643Y-142058000D01*
X102577108Y-141810179D01*
X102516063Y-141569119D01*
X102488376Y-141506000D01*
X102416173Y-141341393D01*
X102280166Y-141133217D01*
X102214021Y-141061365D01*
X102111744Y-140950262D01*
X101915509Y-140797526D01*
X101915507Y-140797525D01*
X101915506Y-140797524D01*
X101696811Y-140679172D01*
X101696802Y-140679169D01*
X101461616Y-140598429D01*
X101216335Y-140557500D01*
X100967665Y-140557500D01*
X100722383Y-140598429D01*
X100487197Y-140679169D01*
X100487188Y-140679172D01*
X100268493Y-140797524D01*
X100072257Y-140950261D01*
X99903833Y-141133217D01*
X99767826Y-141341393D01*
X99667936Y-141569118D01*
X99606892Y-141810175D01*
X99606890Y-141810187D01*
X99586357Y-142057994D01*
X99586357Y-142058005D01*
X96097643Y-142058005D01*
X96097643Y-142058000D01*
X96077108Y-141810179D01*
X96016063Y-141569119D01*
X95988376Y-141506000D01*
X95916173Y-141341393D01*
X95780166Y-141133217D01*
X95714021Y-141061365D01*
X95611744Y-140950262D01*
X95415509Y-140797526D01*
X95415507Y-140797525D01*
X95415506Y-140797524D01*
X95196811Y-140679172D01*
X95196802Y-140679169D01*
X94961616Y-140598429D01*
X94716335Y-140557500D01*
X94467665Y-140557500D01*
X94222383Y-140598429D01*
X93987197Y-140679169D01*
X93987188Y-140679172D01*
X93768493Y-140797524D01*
X93572257Y-140950261D01*
X93403833Y-141133217D01*
X93267826Y-141341393D01*
X93167936Y-141569118D01*
X93106892Y-141810175D01*
X93106890Y-141810187D01*
X93086357Y-142057994D01*
X93086357Y-142058005D01*
X89135643Y-142058005D01*
X89135643Y-142058000D01*
X89115108Y-141810179D01*
X89054063Y-141569119D01*
X89026376Y-141506000D01*
X88954173Y-141341393D01*
X88818166Y-141133217D01*
X88752021Y-141061365D01*
X88649744Y-140950262D01*
X88453509Y-140797526D01*
X88453507Y-140797525D01*
X88453506Y-140797524D01*
X88234811Y-140679172D01*
X88234802Y-140679169D01*
X87999616Y-140598429D01*
X87754335Y-140557500D01*
X87505665Y-140557500D01*
X87260383Y-140598429D01*
X87025197Y-140679169D01*
X87025188Y-140679172D01*
X86806491Y-140797525D01*
X86806488Y-140797528D01*
X86786661Y-140812960D01*
X86721667Y-140838602D01*
X86653127Y-140825035D01*
X86602803Y-140776566D01*
X86586500Y-140715106D01*
X86586500Y-134898000D01*
X89830341Y-134898000D01*
X89850936Y-135133403D01*
X89850938Y-135133413D01*
X89912094Y-135361655D01*
X89912096Y-135361659D01*
X89912097Y-135361663D01*
X89996499Y-135542663D01*
X90011965Y-135575830D01*
X90011967Y-135575834D01*
X90120281Y-135730521D01*
X90147505Y-135769401D01*
X90314599Y-135936495D01*
X90404429Y-135999395D01*
X90508165Y-136072032D01*
X90508167Y-136072033D01*
X90508170Y-136072035D01*
X90722337Y-136171903D01*
X90950592Y-136233063D01*
X91127034Y-136248500D01*
X91185999Y-136253659D01*
X91186000Y-136253659D01*
X91186001Y-136253659D01*
X91244966Y-136248500D01*
X91421408Y-136233063D01*
X91649663Y-136171903D01*
X91863830Y-136072035D01*
X92057401Y-135936495D01*
X92179329Y-135814566D01*
X92240648Y-135781084D01*
X92310340Y-135786068D01*
X92366274Y-135827939D01*
X92383189Y-135858917D01*
X92432202Y-135990328D01*
X92432206Y-135990335D01*
X92518452Y-136105544D01*
X92518455Y-136105547D01*
X92633664Y-136191793D01*
X92633671Y-136191797D01*
X92768517Y-136242091D01*
X92768516Y-136242091D01*
X92775444Y-136242835D01*
X92828127Y-136248500D01*
X94623872Y-136248499D01*
X94683483Y-136242091D01*
X94818331Y-136191796D01*
X94933546Y-136105546D01*
X95019796Y-135990331D01*
X95068810Y-135858916D01*
X95110681Y-135802984D01*
X95176145Y-135778566D01*
X95244418Y-135793417D01*
X95272673Y-135814569D01*
X95394599Y-135936495D01*
X95484429Y-135999395D01*
X95588165Y-136072032D01*
X95588167Y-136072033D01*
X95588170Y-136072035D01*
X95802337Y-136171903D01*
X96030592Y-136233063D01*
X96207034Y-136248500D01*
X96265999Y-136253659D01*
X96266000Y-136253659D01*
X96266001Y-136253659D01*
X96324966Y-136248500D01*
X96501408Y-136233063D01*
X96729663Y-136171903D01*
X96943830Y-136072035D01*
X97137401Y-135936495D01*
X97304495Y-135769401D01*
X97440035Y-135575830D01*
X97539903Y-135361663D01*
X97601063Y-135133408D01*
X97621659Y-134898000D01*
X97601063Y-134662592D01*
X97539903Y-134434337D01*
X97440035Y-134220171D01*
X97349901Y-134091445D01*
X97304494Y-134026597D01*
X97137402Y-133859506D01*
X97137395Y-133859501D01*
X97135251Y-133858000D01*
X97076785Y-133817061D01*
X96943834Y-133723967D01*
X96943830Y-133723965D01*
X96943828Y-133723964D01*
X96729663Y-133624097D01*
X96729659Y-133624096D01*
X96729655Y-133624094D01*
X96501413Y-133562938D01*
X96501403Y-133562936D01*
X96266001Y-133542341D01*
X96265999Y-133542341D01*
X96030596Y-133562936D01*
X96030586Y-133562938D01*
X95802344Y-133624094D01*
X95802335Y-133624098D01*
X95588171Y-133723964D01*
X95588169Y-133723965D01*
X95394600Y-133859503D01*
X95272673Y-133981430D01*
X95211350Y-134014914D01*
X95141658Y-134009930D01*
X95085725Y-133968058D01*
X95068810Y-133937081D01*
X95019797Y-133805671D01*
X95019793Y-133805664D01*
X94933547Y-133690455D01*
X94933544Y-133690452D01*
X94818335Y-133604206D01*
X94818328Y-133604202D01*
X94683482Y-133553908D01*
X94683483Y-133553908D01*
X94623883Y-133547501D01*
X94623881Y-133547500D01*
X94623873Y-133547500D01*
X94623864Y-133547500D01*
X92828129Y-133547500D01*
X92828123Y-133547501D01*
X92768516Y-133553908D01*
X92633671Y-133604202D01*
X92633664Y-133604206D01*
X92518455Y-133690452D01*
X92518452Y-133690455D01*
X92432206Y-133805664D01*
X92432203Y-133805669D01*
X92383189Y-133937083D01*
X92341317Y-133993016D01*
X92275853Y-134017433D01*
X92207580Y-134002581D01*
X92179326Y-133981430D01*
X92057402Y-133859506D01*
X92057395Y-133859501D01*
X92055251Y-133858000D01*
X91996785Y-133817061D01*
X91863834Y-133723967D01*
X91863830Y-133723965D01*
X91863828Y-133723964D01*
X91649663Y-133624097D01*
X91649659Y-133624096D01*
X91649655Y-133624094D01*
X91421413Y-133562938D01*
X91421403Y-133562936D01*
X91186001Y-133542341D01*
X91185999Y-133542341D01*
X90950596Y-133562936D01*
X90950586Y-133562938D01*
X90722344Y-133624094D01*
X90722335Y-133624098D01*
X90508171Y-133723964D01*
X90508169Y-133723965D01*
X90314597Y-133859505D01*
X90147505Y-134026597D01*
X90011965Y-134220169D01*
X90011964Y-134220171D01*
X89912098Y-134434335D01*
X89912094Y-134434344D01*
X89850938Y-134662586D01*
X89850936Y-134662596D01*
X89830341Y-134897999D01*
X89830341Y-134898000D01*
X86586500Y-134898000D01*
X86586500Y-133827060D01*
X86586501Y-133827047D01*
X86586501Y-133658944D01*
X86586248Y-133658000D01*
X86545577Y-133506216D01*
X86518545Y-133459395D01*
X86466524Y-133369290D01*
X86466518Y-133369282D01*
X86168766Y-133071530D01*
X86135281Y-133010207D01*
X86136672Y-132951755D01*
X86165712Y-132843377D01*
X86171063Y-132823408D01*
X86191659Y-132588000D01*
X86171063Y-132352592D01*
X86109903Y-132124337D01*
X86010035Y-131910171D01*
X85927057Y-131791666D01*
X85874496Y-131716600D01*
X85874495Y-131716599D01*
X85752567Y-131594671D01*
X85719084Y-131533351D01*
X85724068Y-131463659D01*
X85765939Y-131407725D01*
X85796915Y-131390810D01*
X85928331Y-131341796D01*
X86043546Y-131255546D01*
X86129796Y-131140331D01*
X86180091Y-131005483D01*
X86186500Y-130945873D01*
X86186499Y-129150128D01*
X86181299Y-129101757D01*
X86180091Y-129090516D01*
X86129797Y-128955671D01*
X86129793Y-128955664D01*
X86043547Y-128840455D01*
X86043544Y-128840452D01*
X85928335Y-128754206D01*
X85928328Y-128754202D01*
X85796917Y-128705189D01*
X85740983Y-128663318D01*
X85716566Y-128597853D01*
X85731418Y-128529580D01*
X85752563Y-128501332D01*
X85874495Y-128379401D01*
X86010035Y-128185830D01*
X86109903Y-127971663D01*
X86171063Y-127743408D01*
X86191659Y-127508000D01*
X86188847Y-127475865D01*
X86176972Y-127340136D01*
X86171063Y-127272592D01*
X86109903Y-127044337D01*
X86010035Y-126830171D01*
X85874495Y-126636599D01*
X85874494Y-126636597D01*
X85707402Y-126469506D01*
X85707396Y-126469501D01*
X85521842Y-126339575D01*
X85478217Y-126284998D01*
X85471023Y-126215500D01*
X85502546Y-126153145D01*
X85521842Y-126136425D01*
X85544026Y-126120891D01*
X85707401Y-126006495D01*
X85874495Y-125839401D01*
X86010035Y-125645830D01*
X86109903Y-125431663D01*
X86171063Y-125203408D01*
X86191659Y-124968000D01*
X86171063Y-124732592D01*
X86109903Y-124504337D01*
X86010035Y-124290171D01*
X86010034Y-124290169D01*
X85874494Y-124096597D01*
X85707402Y-123929506D01*
X85707396Y-123929501D01*
X85521842Y-123799575D01*
X85478217Y-123744998D01*
X85471023Y-123675500D01*
X85502546Y-123613145D01*
X85521842Y-123596425D01*
X85544026Y-123580891D01*
X85707401Y-123466495D01*
X85874495Y-123299401D01*
X86010035Y-123105830D01*
X86109903Y-122891663D01*
X86171063Y-122663408D01*
X86191659Y-122428000D01*
X86171063Y-122192592D01*
X86109903Y-121964337D01*
X86010035Y-121750171D01*
X85874495Y-121556599D01*
X85874494Y-121556597D01*
X85707402Y-121389506D01*
X85707396Y-121389501D01*
X85521842Y-121259575D01*
X85478217Y-121204998D01*
X85471023Y-121135500D01*
X85502546Y-121073145D01*
X85521842Y-121056425D01*
X85544026Y-121040891D01*
X85707401Y-120926495D01*
X85874495Y-120759401D01*
X86010035Y-120565830D01*
X86109903Y-120351663D01*
X86171063Y-120123408D01*
X86191659Y-119888000D01*
X86189222Y-119860154D01*
X86202987Y-119791657D01*
X86251601Y-119741473D01*
X86319629Y-119725538D01*
X86385473Y-119748911D01*
X86400431Y-119761666D01*
X101283233Y-134644468D01*
X101316718Y-134705791D01*
X101315327Y-134764241D01*
X101280939Y-134892583D01*
X101280936Y-134892596D01*
X101260341Y-135127999D01*
X101260341Y-135128000D01*
X101280936Y-135363403D01*
X101280938Y-135363413D01*
X101342094Y-135591655D01*
X101342096Y-135591659D01*
X101342097Y-135591663D01*
X101437322Y-135795873D01*
X101441965Y-135805830D01*
X101441967Y-135805834D01*
X101533456Y-135936493D01*
X101577505Y-135999401D01*
X101744599Y-136166495D01*
X101780733Y-136191796D01*
X101938165Y-136302032D01*
X101938167Y-136302033D01*
X101938170Y-136302035D01*
X102152337Y-136401903D01*
X102380592Y-136463063D01*
X102568918Y-136479539D01*
X102615999Y-136483659D01*
X102616000Y-136483659D01*
X102616001Y-136483659D01*
X102655234Y-136480226D01*
X102851408Y-136463063D01*
X103079663Y-136401903D01*
X103293830Y-136302035D01*
X103487401Y-136166495D01*
X103654495Y-135999401D01*
X103790035Y-135805830D01*
X103889903Y-135591663D01*
X103951063Y-135363408D01*
X103971659Y-135128000D01*
X103951063Y-134892592D01*
X103889903Y-134664337D01*
X103790035Y-134450171D01*
X103679047Y-134291662D01*
X103654494Y-134256597D01*
X103487402Y-134089506D01*
X103487396Y-134089501D01*
X103301842Y-133959575D01*
X103258217Y-133904998D01*
X103251023Y-133835500D01*
X103282546Y-133773145D01*
X103301842Y-133756425D01*
X103348197Y-133723967D01*
X103487401Y-133626495D01*
X103654495Y-133459401D01*
X103790035Y-133265830D01*
X103889903Y-133051663D01*
X103951063Y-132823408D01*
X103971659Y-132588000D01*
X103951063Y-132352592D01*
X103889903Y-132124337D01*
X103790035Y-131910171D01*
X103707057Y-131791666D01*
X103654496Y-131716600D01*
X103654495Y-131716599D01*
X103532567Y-131594671D01*
X103499084Y-131533351D01*
X103504068Y-131463659D01*
X103545939Y-131407725D01*
X103576915Y-131390810D01*
X103708331Y-131341796D01*
X103823546Y-131255546D01*
X103909796Y-131140331D01*
X103960091Y-131005483D01*
X103966500Y-130945873D01*
X103966499Y-129150128D01*
X103961299Y-129101757D01*
X103960091Y-129090516D01*
X103909797Y-128955671D01*
X103909793Y-128955664D01*
X103823547Y-128840455D01*
X103823544Y-128840452D01*
X103708335Y-128754206D01*
X103708328Y-128754202D01*
X103576917Y-128705189D01*
X103520983Y-128663318D01*
X103496566Y-128597853D01*
X103511418Y-128529580D01*
X103532563Y-128501332D01*
X103654495Y-128379401D01*
X103790035Y-128185830D01*
X103889903Y-127971663D01*
X103951063Y-127743408D01*
X103971659Y-127508000D01*
X103968847Y-127475865D01*
X103956972Y-127340136D01*
X103951063Y-127272592D01*
X103889903Y-127044337D01*
X103790035Y-126830171D01*
X103654495Y-126636599D01*
X103654494Y-126636597D01*
X103487402Y-126469506D01*
X103487396Y-126469501D01*
X103301842Y-126339575D01*
X103258217Y-126284998D01*
X103251023Y-126215500D01*
X103282546Y-126153145D01*
X103301842Y-126136425D01*
X103324026Y-126120891D01*
X103487401Y-126006495D01*
X103654495Y-125839401D01*
X103790035Y-125645830D01*
X103889903Y-125431663D01*
X103951063Y-125203408D01*
X103971659Y-124968000D01*
X103951063Y-124732592D01*
X103889903Y-124504337D01*
X103790035Y-124290171D01*
X103790034Y-124290169D01*
X103654494Y-124096597D01*
X103487402Y-123929506D01*
X103487396Y-123929501D01*
X103301842Y-123799575D01*
X103258217Y-123744998D01*
X103251023Y-123675500D01*
X103282546Y-123613145D01*
X103301842Y-123596425D01*
X103324026Y-123580891D01*
X103487401Y-123466495D01*
X103654495Y-123299401D01*
X103790035Y-123105830D01*
X103889903Y-122891663D01*
X103951063Y-122663408D01*
X103971659Y-122428000D01*
X103951063Y-122192592D01*
X103889903Y-121964337D01*
X103790035Y-121750171D01*
X103654495Y-121556599D01*
X103654494Y-121556597D01*
X103487402Y-121389506D01*
X103487396Y-121389501D01*
X103301842Y-121259575D01*
X103258217Y-121204998D01*
X103251023Y-121135500D01*
X103282546Y-121073145D01*
X103301842Y-121056425D01*
X103324026Y-121040891D01*
X103487401Y-120926495D01*
X103654495Y-120759401D01*
X103790035Y-120565830D01*
X103889903Y-120351663D01*
X103951063Y-120123408D01*
X103971659Y-119888000D01*
X103951063Y-119652592D01*
X103889903Y-119424337D01*
X103790035Y-119210171D01*
X103780491Y-119196541D01*
X103654496Y-119016600D01*
X103654495Y-119016599D01*
X103532567Y-118894671D01*
X103499084Y-118833351D01*
X103504068Y-118763659D01*
X103545939Y-118707725D01*
X103576915Y-118690810D01*
X103708331Y-118641796D01*
X103823546Y-118555546D01*
X103909796Y-118440331D01*
X103960091Y-118305483D01*
X103966500Y-118245873D01*
X103966499Y-116450128D01*
X103960091Y-116390517D01*
X103909796Y-116255669D01*
X103909795Y-116255668D01*
X103909793Y-116255664D01*
X103823547Y-116140455D01*
X103823544Y-116140452D01*
X103708335Y-116054206D01*
X103708328Y-116054202D01*
X103576917Y-116005189D01*
X103520983Y-115963318D01*
X103496566Y-115897853D01*
X103511418Y-115829580D01*
X103532563Y-115801332D01*
X103654495Y-115679401D01*
X103790035Y-115485830D01*
X103889903Y-115271663D01*
X103951063Y-115043408D01*
X103971659Y-114808000D01*
X103951063Y-114572592D01*
X103889903Y-114344337D01*
X103790035Y-114130171D01*
X103723517Y-114035172D01*
X103654494Y-113936597D01*
X103487402Y-113769506D01*
X103487396Y-113769501D01*
X103301842Y-113639575D01*
X103258217Y-113584998D01*
X103251023Y-113515500D01*
X103282546Y-113453145D01*
X103301842Y-113436425D01*
X103324026Y-113420891D01*
X103487401Y-113306495D01*
X103654495Y-113139401D01*
X103790035Y-112945830D01*
X103889903Y-112731663D01*
X103951063Y-112503408D01*
X103971659Y-112268000D01*
X103951063Y-112032592D01*
X103889903Y-111804337D01*
X103790035Y-111590171D01*
X103684797Y-111439874D01*
X103654494Y-111396597D01*
X103487402Y-111229506D01*
X103487396Y-111229501D01*
X103301842Y-111099575D01*
X103258217Y-111044998D01*
X103251023Y-110975500D01*
X103282546Y-110913145D01*
X103301842Y-110896425D01*
X103334189Y-110873775D01*
X103487401Y-110766495D01*
X103654495Y-110599401D01*
X103790035Y-110405830D01*
X103889903Y-110191663D01*
X103951063Y-109963408D01*
X103971659Y-109728000D01*
X103951063Y-109492592D01*
X103889903Y-109264337D01*
X103790035Y-109050171D01*
X103711056Y-108937376D01*
X103654494Y-108856597D01*
X103487402Y-108689506D01*
X103487396Y-108689501D01*
X103301842Y-108559575D01*
X103258217Y-108504998D01*
X103251023Y-108435500D01*
X103282546Y-108373145D01*
X103301842Y-108356425D01*
X103324026Y-108340891D01*
X103487401Y-108226495D01*
X103654495Y-108059401D01*
X103790035Y-107865830D01*
X103889903Y-107651663D01*
X103951063Y-107423408D01*
X103971659Y-107188000D01*
X103951063Y-106952592D01*
X103889903Y-106724337D01*
X103790035Y-106510171D01*
X103654495Y-106316599D01*
X103532567Y-106194671D01*
X103499084Y-106133351D01*
X103504068Y-106063659D01*
X103545939Y-106007725D01*
X103576915Y-105990810D01*
X103708331Y-105941796D01*
X103823546Y-105855546D01*
X103909796Y-105740331D01*
X103960091Y-105605483D01*
X103966500Y-105545873D01*
X103966499Y-103750128D01*
X103960091Y-103690517D01*
X103941205Y-103639882D01*
X103909797Y-103555671D01*
X103909793Y-103555664D01*
X103823547Y-103440455D01*
X103823544Y-103440452D01*
X103708335Y-103354206D01*
X103708328Y-103354202D01*
X103576917Y-103305189D01*
X103520983Y-103263318D01*
X103496566Y-103197853D01*
X103511418Y-103129580D01*
X103532563Y-103101332D01*
X103654495Y-102979401D01*
X103790035Y-102785830D01*
X103889903Y-102571663D01*
X103951063Y-102343408D01*
X103971659Y-102108000D01*
X103951063Y-101872592D01*
X103889903Y-101644337D01*
X103790035Y-101430171D01*
X103654495Y-101236599D01*
X103654494Y-101236597D01*
X103487402Y-101069506D01*
X103487396Y-101069501D01*
X103301842Y-100939575D01*
X103258217Y-100884998D01*
X103251023Y-100815500D01*
X103282546Y-100753145D01*
X103301842Y-100736425D01*
X103324026Y-100720891D01*
X103487401Y-100606495D01*
X103654495Y-100439401D01*
X103790035Y-100245830D01*
X103889903Y-100031663D01*
X103951063Y-99803408D01*
X103971659Y-99568000D01*
X103951063Y-99332592D01*
X103889903Y-99104337D01*
X103790035Y-98890171D01*
X103654495Y-98696599D01*
X103654494Y-98696597D01*
X103487402Y-98529506D01*
X103487396Y-98529501D01*
X103301842Y-98399575D01*
X103258217Y-98344998D01*
X103251023Y-98275500D01*
X103282546Y-98213145D01*
X103301842Y-98196425D01*
X103347437Y-98164499D01*
X103487401Y-98066495D01*
X103654495Y-97899401D01*
X103790035Y-97705830D01*
X103889903Y-97491663D01*
X103951063Y-97263408D01*
X103971659Y-97028000D01*
X103951063Y-96792592D01*
X103889903Y-96564337D01*
X103790035Y-96350171D01*
X103663328Y-96169213D01*
X103654494Y-96156597D01*
X103487402Y-95989506D01*
X103487396Y-95989501D01*
X103301842Y-95859575D01*
X103258217Y-95804998D01*
X103251023Y-95735500D01*
X103282546Y-95673145D01*
X103301842Y-95656425D01*
X103324026Y-95640891D01*
X103487401Y-95526495D01*
X103654495Y-95359401D01*
X103790035Y-95165830D01*
X103889903Y-94951663D01*
X103951063Y-94723408D01*
X103971659Y-94488000D01*
X103951063Y-94252592D01*
X103889903Y-94024337D01*
X103790035Y-93810171D01*
X103654495Y-93616599D01*
X103532567Y-93494671D01*
X103499084Y-93433351D01*
X103504068Y-93363659D01*
X103545939Y-93307725D01*
X103576915Y-93290810D01*
X103708331Y-93241796D01*
X103823546Y-93155546D01*
X103909796Y-93040331D01*
X103960091Y-92905483D01*
X103966500Y-92845873D01*
X103966499Y-91050128D01*
X103960091Y-90990517D01*
X103959748Y-90989598D01*
X103909797Y-90855671D01*
X103909793Y-90855664D01*
X103823547Y-90740455D01*
X103823544Y-90740452D01*
X103708335Y-90654206D01*
X103708328Y-90654202D01*
X103576917Y-90605189D01*
X103520983Y-90563318D01*
X103496566Y-90497853D01*
X103511418Y-90429580D01*
X103532563Y-90401332D01*
X103654495Y-90279401D01*
X103790035Y-90085830D01*
X103889903Y-89871663D01*
X103951063Y-89643408D01*
X103971659Y-89408000D01*
X103951063Y-89172592D01*
X103889903Y-88944337D01*
X103790035Y-88730171D01*
X103685593Y-88581011D01*
X103654494Y-88536597D01*
X103487402Y-88369506D01*
X103487396Y-88369501D01*
X103301842Y-88239575D01*
X103258217Y-88184998D01*
X103251023Y-88115500D01*
X103282546Y-88053145D01*
X103301842Y-88036425D01*
X103364550Y-87992516D01*
X103487401Y-87906495D01*
X103654495Y-87739401D01*
X103790035Y-87545830D01*
X103889903Y-87331663D01*
X103951063Y-87103408D01*
X103971659Y-86868000D01*
X103951063Y-86632592D01*
X103889903Y-86404337D01*
X103790035Y-86190171D01*
X103762681Y-86151104D01*
X103654494Y-85996597D01*
X103487402Y-85829506D01*
X103487395Y-85829501D01*
X103476018Y-85821535D01*
X103448521Y-85802281D01*
X103293834Y-85693967D01*
X103293830Y-85693965D01*
X103266436Y-85681191D01*
X103079663Y-85594097D01*
X103079659Y-85594096D01*
X103079655Y-85594094D01*
X102851413Y-85532938D01*
X102851403Y-85532936D01*
X102616001Y-85512341D01*
X102615999Y-85512341D01*
X102380596Y-85532936D01*
X102380586Y-85532938D01*
X102152344Y-85594094D01*
X102152335Y-85594098D01*
X101938171Y-85693964D01*
X101938169Y-85693965D01*
X101744597Y-85829505D01*
X101577505Y-85996597D01*
X101441965Y-86190169D01*
X101441964Y-86190171D01*
X101342098Y-86404335D01*
X101342094Y-86404344D01*
X101280938Y-86632586D01*
X101280936Y-86632596D01*
X101260341Y-86867999D01*
X101260341Y-86868000D01*
X101280936Y-87103403D01*
X101280938Y-87103413D01*
X101342094Y-87331655D01*
X101342096Y-87331659D01*
X101342097Y-87331663D01*
X101441965Y-87545830D01*
X101441967Y-87545834D01*
X101577501Y-87739395D01*
X101577506Y-87739402D01*
X101744597Y-87906493D01*
X101744603Y-87906498D01*
X101930158Y-88036425D01*
X101973783Y-88091002D01*
X101980977Y-88160500D01*
X101949454Y-88222855D01*
X101930158Y-88239575D01*
X101744597Y-88369505D01*
X101577505Y-88536597D01*
X101441965Y-88730169D01*
X101441964Y-88730171D01*
X101342098Y-88944335D01*
X101342094Y-88944344D01*
X101280938Y-89172586D01*
X101280936Y-89172596D01*
X101260341Y-89407999D01*
X101260341Y-89408000D01*
X101280936Y-89643403D01*
X101280938Y-89643413D01*
X101342094Y-89871655D01*
X101342096Y-89871659D01*
X101342097Y-89871663D01*
X101428775Y-90057544D01*
X101441965Y-90085830D01*
X101441967Y-90085834D01*
X101511502Y-90185139D01*
X101577501Y-90279396D01*
X101577506Y-90279402D01*
X101699430Y-90401326D01*
X101732915Y-90462649D01*
X101727931Y-90532341D01*
X101686059Y-90588274D01*
X101655083Y-90605189D01*
X101523669Y-90654203D01*
X101523664Y-90654206D01*
X101408455Y-90740452D01*
X101408452Y-90740455D01*
X101322206Y-90855664D01*
X101322202Y-90855671D01*
X101271908Y-90990517D01*
X101265501Y-91050116D01*
X101265501Y-91050123D01*
X101265500Y-91050135D01*
X101265500Y-92845870D01*
X101265501Y-92845876D01*
X101271908Y-92905483D01*
X101322202Y-93040328D01*
X101322206Y-93040335D01*
X101408452Y-93155544D01*
X101408455Y-93155547D01*
X101523664Y-93241793D01*
X101523671Y-93241797D01*
X101655081Y-93290810D01*
X101711015Y-93332681D01*
X101735432Y-93398145D01*
X101720580Y-93466418D01*
X101699430Y-93494673D01*
X101577503Y-93616600D01*
X101441965Y-93810169D01*
X101441964Y-93810171D01*
X101342098Y-94024335D01*
X101342094Y-94024344D01*
X101280938Y-94252586D01*
X101280936Y-94252596D01*
X101260341Y-94487999D01*
X101260341Y-94488000D01*
X101280936Y-94723403D01*
X101280938Y-94723413D01*
X101342094Y-94951655D01*
X101342096Y-94951659D01*
X101342097Y-94951663D01*
X101369896Y-95011277D01*
X101441965Y-95165830D01*
X101441967Y-95165834D01*
X101577501Y-95359395D01*
X101577506Y-95359402D01*
X101744597Y-95526493D01*
X101744603Y-95526498D01*
X101930158Y-95656425D01*
X101973783Y-95711002D01*
X101980977Y-95780500D01*
X101949454Y-95842855D01*
X101930158Y-95859575D01*
X101744597Y-95989505D01*
X101577505Y-96156597D01*
X101441965Y-96350169D01*
X101441964Y-96350171D01*
X101342098Y-96564335D01*
X101342094Y-96564344D01*
X101280938Y-96792586D01*
X101280936Y-96792596D01*
X101260341Y-97027999D01*
X101260341Y-97028000D01*
X101280936Y-97263403D01*
X101280938Y-97263413D01*
X101342094Y-97491655D01*
X101342096Y-97491659D01*
X101342097Y-97491663D01*
X101396337Y-97607981D01*
X101441965Y-97705830D01*
X101441967Y-97705834D01*
X101577501Y-97899395D01*
X101577506Y-97899402D01*
X101744597Y-98066493D01*
X101744603Y-98066498D01*
X101930158Y-98196425D01*
X101973783Y-98251002D01*
X101980977Y-98320500D01*
X101949454Y-98382855D01*
X101930158Y-98399575D01*
X101744597Y-98529505D01*
X101577505Y-98696597D01*
X101441965Y-98890169D01*
X101441964Y-98890171D01*
X101342098Y-99104335D01*
X101342094Y-99104344D01*
X101280938Y-99332586D01*
X101280936Y-99332596D01*
X101260341Y-99567999D01*
X101260341Y-99568000D01*
X101280936Y-99803403D01*
X101280938Y-99803413D01*
X101342094Y-100031655D01*
X101342096Y-100031659D01*
X101342097Y-100031663D01*
X101358668Y-100067199D01*
X101441965Y-100245830D01*
X101441967Y-100245834D01*
X101577501Y-100439395D01*
X101577506Y-100439402D01*
X101744597Y-100606493D01*
X101744603Y-100606498D01*
X101930158Y-100736425D01*
X101973783Y-100791002D01*
X101980977Y-100860500D01*
X101949454Y-100922855D01*
X101930158Y-100939575D01*
X101744597Y-101069505D01*
X101577505Y-101236597D01*
X101441965Y-101430169D01*
X101441964Y-101430171D01*
X101342098Y-101644335D01*
X101342094Y-101644344D01*
X101280938Y-101872586D01*
X101280936Y-101872596D01*
X101260341Y-102107999D01*
X101260341Y-102108000D01*
X101280936Y-102343403D01*
X101280938Y-102343413D01*
X101342094Y-102571655D01*
X101342096Y-102571659D01*
X101342097Y-102571663D01*
X101441965Y-102785830D01*
X101441967Y-102785834D01*
X101543521Y-102930867D01*
X101577501Y-102979396D01*
X101577506Y-102979402D01*
X101699430Y-103101326D01*
X101732915Y-103162649D01*
X101727931Y-103232341D01*
X101686059Y-103288274D01*
X101655083Y-103305189D01*
X101523669Y-103354203D01*
X101523664Y-103354206D01*
X101408455Y-103440452D01*
X101408452Y-103440455D01*
X101322206Y-103555664D01*
X101322202Y-103555671D01*
X101271908Y-103690517D01*
X101265501Y-103750116D01*
X101265501Y-103750123D01*
X101265500Y-103750135D01*
X101265500Y-105545870D01*
X101265501Y-105545876D01*
X101271908Y-105605483D01*
X101322202Y-105740328D01*
X101322206Y-105740335D01*
X101408452Y-105855544D01*
X101408455Y-105855547D01*
X101523664Y-105941793D01*
X101523671Y-105941797D01*
X101655081Y-105990810D01*
X101711015Y-106032681D01*
X101735432Y-106098145D01*
X101720580Y-106166418D01*
X101699430Y-106194673D01*
X101577503Y-106316600D01*
X101441965Y-106510169D01*
X101441964Y-106510171D01*
X101342098Y-106724335D01*
X101342094Y-106724344D01*
X101280938Y-106952586D01*
X101280936Y-106952596D01*
X101260341Y-107187999D01*
X101260341Y-107188000D01*
X101280936Y-107423403D01*
X101280938Y-107423413D01*
X101342094Y-107651655D01*
X101342096Y-107651659D01*
X101342097Y-107651663D01*
X101344178Y-107656125D01*
X101441965Y-107865830D01*
X101441967Y-107865834D01*
X101577501Y-108059395D01*
X101577506Y-108059402D01*
X101744597Y-108226493D01*
X101744603Y-108226498D01*
X101930158Y-108356425D01*
X101973783Y-108411002D01*
X101980977Y-108480500D01*
X101949454Y-108542855D01*
X101930158Y-108559575D01*
X101744597Y-108689505D01*
X101577505Y-108856597D01*
X101441965Y-109050169D01*
X101441964Y-109050171D01*
X101342098Y-109264335D01*
X101342094Y-109264344D01*
X101280938Y-109492586D01*
X101280936Y-109492596D01*
X101260341Y-109727999D01*
X101260341Y-109728000D01*
X101280936Y-109963403D01*
X101280938Y-109963413D01*
X101342094Y-110191655D01*
X101342096Y-110191659D01*
X101342097Y-110191663D01*
X101441965Y-110405830D01*
X101441967Y-110405834D01*
X101577501Y-110599395D01*
X101577506Y-110599402D01*
X101744597Y-110766493D01*
X101744603Y-110766498D01*
X101930158Y-110896425D01*
X101973783Y-110951002D01*
X101980977Y-111020500D01*
X101949454Y-111082855D01*
X101930158Y-111099575D01*
X101744597Y-111229505D01*
X101577505Y-111396597D01*
X101441965Y-111590169D01*
X101441964Y-111590171D01*
X101342098Y-111804335D01*
X101342094Y-111804344D01*
X101280938Y-112032586D01*
X101280936Y-112032596D01*
X101260341Y-112267999D01*
X101260341Y-112268000D01*
X101280936Y-112503403D01*
X101280938Y-112503413D01*
X101342094Y-112731655D01*
X101342096Y-112731659D01*
X101342097Y-112731663D01*
X101441965Y-112945830D01*
X101441967Y-112945834D01*
X101577501Y-113139395D01*
X101577506Y-113139402D01*
X101744597Y-113306493D01*
X101744603Y-113306498D01*
X101930158Y-113436425D01*
X101973783Y-113491002D01*
X101980977Y-113560500D01*
X101949454Y-113622855D01*
X101930158Y-113639575D01*
X101744597Y-113769505D01*
X101577505Y-113936597D01*
X101441965Y-114130169D01*
X101441964Y-114130171D01*
X101342098Y-114344335D01*
X101342094Y-114344344D01*
X101280938Y-114572586D01*
X101280936Y-114572596D01*
X101260341Y-114807999D01*
X101260341Y-114808000D01*
X101280936Y-115043403D01*
X101280938Y-115043413D01*
X101342094Y-115271655D01*
X101342096Y-115271659D01*
X101342097Y-115271663D01*
X101415730Y-115429569D01*
X101441965Y-115485830D01*
X101441967Y-115485834D01*
X101541640Y-115628181D01*
X101577501Y-115679396D01*
X101577506Y-115679402D01*
X101699430Y-115801326D01*
X101732915Y-115862649D01*
X101727931Y-115932341D01*
X101686059Y-115988274D01*
X101655083Y-116005189D01*
X101523669Y-116054203D01*
X101523664Y-116054206D01*
X101408455Y-116140452D01*
X101408452Y-116140455D01*
X101322206Y-116255664D01*
X101322202Y-116255671D01*
X101271908Y-116390517D01*
X101265501Y-116450116D01*
X101265501Y-116450123D01*
X101265500Y-116450135D01*
X101265500Y-118245870D01*
X101265501Y-118245876D01*
X101271908Y-118305483D01*
X101322202Y-118440328D01*
X101322206Y-118440335D01*
X101408452Y-118555544D01*
X101408455Y-118555547D01*
X101523664Y-118641793D01*
X101523671Y-118641797D01*
X101655081Y-118690810D01*
X101711015Y-118732681D01*
X101735432Y-118798145D01*
X101720580Y-118866418D01*
X101699430Y-118894673D01*
X101577503Y-119016600D01*
X101441965Y-119210169D01*
X101441964Y-119210171D01*
X101342098Y-119424335D01*
X101342094Y-119424344D01*
X101280938Y-119652586D01*
X101280936Y-119652596D01*
X101260341Y-119887999D01*
X101260341Y-119888000D01*
X101280936Y-120123403D01*
X101280938Y-120123413D01*
X101342094Y-120351655D01*
X101342096Y-120351659D01*
X101342097Y-120351663D01*
X101441965Y-120565830D01*
X101441967Y-120565834D01*
X101577501Y-120759395D01*
X101577506Y-120759402D01*
X101744597Y-120926493D01*
X101744603Y-120926498D01*
X101930158Y-121056425D01*
X101973783Y-121111002D01*
X101980977Y-121180500D01*
X101949454Y-121242855D01*
X101930158Y-121259575D01*
X101744597Y-121389505D01*
X101577505Y-121556597D01*
X101441965Y-121750169D01*
X101441964Y-121750171D01*
X101342098Y-121964335D01*
X101342094Y-121964344D01*
X101280938Y-122192586D01*
X101280936Y-122192596D01*
X101260341Y-122427999D01*
X101260341Y-122428000D01*
X101280936Y-122663403D01*
X101280938Y-122663413D01*
X101342094Y-122891655D01*
X101342096Y-122891659D01*
X101342097Y-122891663D01*
X101410249Y-123037815D01*
X101441965Y-123105830D01*
X101441967Y-123105834D01*
X101550281Y-123260521D01*
X101570422Y-123289286D01*
X101577501Y-123299395D01*
X101577506Y-123299402D01*
X101744597Y-123466493D01*
X101744603Y-123466498D01*
X101930158Y-123596425D01*
X101973783Y-123651002D01*
X101980977Y-123720500D01*
X101949454Y-123782855D01*
X101930158Y-123799575D01*
X101744597Y-123929505D01*
X101577505Y-124096597D01*
X101441965Y-124290169D01*
X101441964Y-124290171D01*
X101342098Y-124504335D01*
X101342094Y-124504344D01*
X101280938Y-124732586D01*
X101280936Y-124732596D01*
X101260341Y-124967999D01*
X101260341Y-124968000D01*
X101280936Y-125203403D01*
X101280938Y-125203413D01*
X101342094Y-125431655D01*
X101342096Y-125431659D01*
X101342097Y-125431663D01*
X101405906Y-125568501D01*
X101441965Y-125645830D01*
X101441967Y-125645834D01*
X101577501Y-125839395D01*
X101577506Y-125839402D01*
X101744597Y-126006493D01*
X101744603Y-126006498D01*
X101930158Y-126136425D01*
X101973783Y-126191002D01*
X101980977Y-126260500D01*
X101949454Y-126322855D01*
X101930158Y-126339575D01*
X101744597Y-126469505D01*
X101577505Y-126636597D01*
X101441965Y-126830169D01*
X101441964Y-126830171D01*
X101342098Y-127044335D01*
X101342094Y-127044344D01*
X101280938Y-127272586D01*
X101280936Y-127272596D01*
X101260341Y-127507999D01*
X101260341Y-127508000D01*
X101280936Y-127743403D01*
X101280938Y-127743413D01*
X101342094Y-127971655D01*
X101342096Y-127971659D01*
X101342097Y-127971663D01*
X101366661Y-128024340D01*
X101441965Y-128185830D01*
X101441967Y-128185834D01*
X101550281Y-128340521D01*
X101577501Y-128379396D01*
X101577506Y-128379402D01*
X101699430Y-128501326D01*
X101732915Y-128562649D01*
X101727931Y-128632341D01*
X101686059Y-128688274D01*
X101655083Y-128705189D01*
X101523669Y-128754203D01*
X101523664Y-128754206D01*
X101408455Y-128840452D01*
X101408452Y-128840455D01*
X101322206Y-128955664D01*
X101322202Y-128955671D01*
X101271908Y-129090517D01*
X101265501Y-129150116D01*
X101265501Y-129150123D01*
X101265500Y-129150135D01*
X101265500Y-130088903D01*
X101245815Y-130155942D01*
X101193011Y-130201697D01*
X101123853Y-130211641D01*
X101060297Y-130182616D01*
X101053819Y-130176584D01*
X86593590Y-115716355D01*
X86593588Y-115716352D01*
X86474717Y-115597481D01*
X86474716Y-115597480D01*
X86387904Y-115547360D01*
X86387904Y-115547359D01*
X86387900Y-115547358D01*
X86337785Y-115518423D01*
X86185057Y-115477499D01*
X86185055Y-115477499D01*
X86177206Y-115475396D01*
X86178011Y-115472391D01*
X86127558Y-115450053D01*
X86089106Y-115391716D01*
X86088297Y-115321851D01*
X86095290Y-115303000D01*
X86109900Y-115271669D01*
X86109903Y-115271663D01*
X86171063Y-115043408D01*
X86191659Y-114808000D01*
X86171063Y-114572592D01*
X86109903Y-114344337D01*
X86010035Y-114130171D01*
X85943517Y-114035172D01*
X85874494Y-113936597D01*
X85707402Y-113769506D01*
X85707396Y-113769501D01*
X85521842Y-113639575D01*
X85478217Y-113584998D01*
X85471023Y-113515500D01*
X85502546Y-113453145D01*
X85521842Y-113436425D01*
X85544026Y-113420891D01*
X85707401Y-113306495D01*
X85874495Y-113139401D01*
X86010035Y-112945830D01*
X86109903Y-112731663D01*
X86171063Y-112503408D01*
X86191659Y-112268000D01*
X86171063Y-112032592D01*
X86109903Y-111804337D01*
X86010035Y-111590171D01*
X85904797Y-111439874D01*
X85874494Y-111396597D01*
X85707402Y-111229506D01*
X85707396Y-111229501D01*
X85521842Y-111099575D01*
X85478217Y-111044998D01*
X85471023Y-110975500D01*
X85502546Y-110913145D01*
X85521842Y-110896425D01*
X85554189Y-110873775D01*
X85707401Y-110766495D01*
X85874495Y-110599401D01*
X86010035Y-110405830D01*
X86109903Y-110191663D01*
X86171063Y-109963408D01*
X86191659Y-109728000D01*
X86171063Y-109492592D01*
X86109903Y-109264337D01*
X86010035Y-109050171D01*
X85931056Y-108937376D01*
X85874494Y-108856597D01*
X85707402Y-108689506D01*
X85707396Y-108689501D01*
X85521842Y-108559575D01*
X85478217Y-108504998D01*
X85471023Y-108435500D01*
X85502546Y-108373145D01*
X85521842Y-108356425D01*
X85544026Y-108340891D01*
X85707401Y-108226495D01*
X85874495Y-108059401D01*
X86010035Y-107865830D01*
X86109903Y-107651663D01*
X86171063Y-107423408D01*
X86191659Y-107188000D01*
X86171063Y-106952592D01*
X86109903Y-106724337D01*
X86010035Y-106510171D01*
X85874495Y-106316599D01*
X85752179Y-106194283D01*
X85718696Y-106132963D01*
X85723680Y-106063271D01*
X85765551Y-106007337D01*
X85796529Y-105990422D01*
X85928086Y-105941354D01*
X85928093Y-105941350D01*
X86043187Y-105855190D01*
X86043190Y-105855187D01*
X86129350Y-105740093D01*
X86129354Y-105740086D01*
X86179596Y-105605379D01*
X86179598Y-105605372D01*
X86185999Y-105545844D01*
X86186000Y-105545827D01*
X86186000Y-104898000D01*
X85280560Y-104898000D01*
X85311245Y-104844853D01*
X85346000Y-104715143D01*
X85346000Y-104580857D01*
X85311245Y-104451147D01*
X85280560Y-104398000D01*
X86186000Y-104398000D01*
X86186000Y-103750172D01*
X86185999Y-103750155D01*
X86179598Y-103690627D01*
X86179596Y-103690620D01*
X86129354Y-103555913D01*
X86129350Y-103555906D01*
X86043190Y-103440812D01*
X86043187Y-103440809D01*
X85928093Y-103354649D01*
X85928088Y-103354646D01*
X85796528Y-103305577D01*
X85740595Y-103263705D01*
X85716178Y-103198241D01*
X85731030Y-103129968D01*
X85752175Y-103101720D01*
X85874495Y-102979401D01*
X86010035Y-102785830D01*
X86109903Y-102571663D01*
X86171063Y-102343408D01*
X86191659Y-102108000D01*
X86171063Y-101872592D01*
X86109903Y-101644337D01*
X86010035Y-101430171D01*
X85874495Y-101236599D01*
X85874494Y-101236597D01*
X85707402Y-101069506D01*
X85707396Y-101069501D01*
X85521842Y-100939575D01*
X85478217Y-100884998D01*
X85471023Y-100815500D01*
X85502546Y-100753145D01*
X85521842Y-100736425D01*
X85544026Y-100720891D01*
X85707401Y-100606495D01*
X85874495Y-100439401D01*
X86010035Y-100245830D01*
X86109903Y-100031663D01*
X86171063Y-99803408D01*
X86191659Y-99568000D01*
X86171063Y-99332592D01*
X86109903Y-99104337D01*
X86010035Y-98890171D01*
X85874495Y-98696599D01*
X85874494Y-98696597D01*
X85707402Y-98529506D01*
X85707396Y-98529501D01*
X85521842Y-98399575D01*
X85478217Y-98344998D01*
X85471023Y-98275500D01*
X85502546Y-98213145D01*
X85521842Y-98196425D01*
X85567437Y-98164499D01*
X85707401Y-98066495D01*
X85874495Y-97899401D01*
X86010035Y-97705830D01*
X86109903Y-97491663D01*
X86171063Y-97263408D01*
X86191659Y-97028000D01*
X86171063Y-96792592D01*
X86109903Y-96564337D01*
X86010035Y-96350171D01*
X85883328Y-96169213D01*
X85874494Y-96156597D01*
X85707402Y-95989506D01*
X85707396Y-95989501D01*
X85521842Y-95859575D01*
X85478217Y-95804998D01*
X85471023Y-95735500D01*
X85502546Y-95673145D01*
X85521842Y-95656425D01*
X85544026Y-95640891D01*
X85707401Y-95526495D01*
X85874495Y-95359401D01*
X86010035Y-95165830D01*
X86109903Y-94951663D01*
X86171063Y-94723408D01*
X86191659Y-94488000D01*
X86171063Y-94252592D01*
X86109903Y-94024337D01*
X86010035Y-93810171D01*
X85874495Y-93616599D01*
X85752567Y-93494671D01*
X85719084Y-93433351D01*
X85724068Y-93363659D01*
X85765939Y-93307725D01*
X85796915Y-93290810D01*
X85928331Y-93241796D01*
X86043546Y-93155546D01*
X86129796Y-93040331D01*
X86180091Y-92905483D01*
X86186500Y-92845873D01*
X86186499Y-91050128D01*
X86180091Y-90990517D01*
X86179748Y-90989598D01*
X86129797Y-90855671D01*
X86129793Y-90855664D01*
X86043547Y-90740455D01*
X86043544Y-90740452D01*
X85928335Y-90654206D01*
X85928328Y-90654202D01*
X85796917Y-90605189D01*
X85740983Y-90563318D01*
X85716566Y-90497853D01*
X85731418Y-90429580D01*
X85752563Y-90401332D01*
X85874495Y-90279401D01*
X86010035Y-90085830D01*
X86037001Y-90028002D01*
X90045723Y-90028002D01*
X90064793Y-90245975D01*
X90064793Y-90245979D01*
X90121422Y-90457322D01*
X90121424Y-90457326D01*
X90121425Y-90457330D01*
X90140321Y-90497853D01*
X90213897Y-90655638D01*
X90213898Y-90655639D01*
X90339402Y-90834877D01*
X90494123Y-90989598D01*
X90673361Y-91115102D01*
X90871670Y-91207575D01*
X91083023Y-91264207D01*
X91265926Y-91280208D01*
X91300998Y-91283277D01*
X91301000Y-91283277D01*
X91301002Y-91283277D01*
X91329254Y-91280805D01*
X91518977Y-91264207D01*
X91730330Y-91207575D01*
X91928639Y-91115102D01*
X92107877Y-90989598D01*
X92262598Y-90834877D01*
X92388102Y-90655639D01*
X92480575Y-90457330D01*
X92537207Y-90245977D01*
X92556090Y-90030136D01*
X92556277Y-90028002D01*
X94895723Y-90028002D01*
X94914793Y-90245975D01*
X94914793Y-90245979D01*
X94971422Y-90457322D01*
X94971424Y-90457326D01*
X94971425Y-90457330D01*
X94990321Y-90497853D01*
X95063897Y-90655638D01*
X95063898Y-90655639D01*
X95189402Y-90834877D01*
X95344123Y-90989598D01*
X95523361Y-91115102D01*
X95721670Y-91207575D01*
X95933023Y-91264207D01*
X96115926Y-91280208D01*
X96150998Y-91283277D01*
X96151000Y-91283277D01*
X96151002Y-91283277D01*
X96179254Y-91280805D01*
X96368977Y-91264207D01*
X96580330Y-91207575D01*
X96778639Y-91115102D01*
X96957877Y-90989598D01*
X97112598Y-90834877D01*
X97238102Y-90655639D01*
X97330575Y-90457330D01*
X97387207Y-90245977D01*
X97406090Y-90030136D01*
X97406277Y-90028002D01*
X97406277Y-90027997D01*
X97396028Y-89910853D01*
X97387207Y-89810023D01*
X97330575Y-89598670D01*
X97238102Y-89400362D01*
X97238100Y-89400359D01*
X97238099Y-89400357D01*
X97112599Y-89221124D01*
X97037081Y-89145606D01*
X96957877Y-89066402D01*
X96819978Y-88969844D01*
X96778638Y-88940897D01*
X96679484Y-88894661D01*
X96580330Y-88848425D01*
X96580326Y-88848424D01*
X96580322Y-88848422D01*
X96368977Y-88791793D01*
X96151002Y-88772723D01*
X96150998Y-88772723D01*
X96005682Y-88785436D01*
X95933023Y-88791793D01*
X95933020Y-88791793D01*
X95721677Y-88848422D01*
X95721668Y-88848426D01*
X95523361Y-88940898D01*
X95523357Y-88940900D01*
X95344121Y-89066402D01*
X95189402Y-89221121D01*
X95063900Y-89400357D01*
X95063898Y-89400361D01*
X94971426Y-89598668D01*
X94971422Y-89598677D01*
X94914793Y-89810020D01*
X94914793Y-89810024D01*
X94895723Y-90027997D01*
X94895723Y-90028002D01*
X92556277Y-90028002D01*
X92556277Y-90027997D01*
X92546028Y-89910853D01*
X92537207Y-89810023D01*
X92480575Y-89598670D01*
X92388102Y-89400362D01*
X92388100Y-89400359D01*
X92388099Y-89400357D01*
X92262599Y-89221124D01*
X92187081Y-89145606D01*
X92107877Y-89066402D01*
X91969978Y-88969844D01*
X91928638Y-88940897D01*
X91829484Y-88894661D01*
X91730330Y-88848425D01*
X91730326Y-88848424D01*
X91730322Y-88848422D01*
X91518977Y-88791793D01*
X91301002Y-88772723D01*
X91300998Y-88772723D01*
X91155682Y-88785436D01*
X91083023Y-88791793D01*
X91083020Y-88791793D01*
X90871677Y-88848422D01*
X90871668Y-88848426D01*
X90673361Y-88940898D01*
X90673357Y-88940900D01*
X90494121Y-89066402D01*
X90339402Y-89221121D01*
X90213900Y-89400357D01*
X90213898Y-89400361D01*
X90121426Y-89598668D01*
X90121422Y-89598677D01*
X90064793Y-89810020D01*
X90064793Y-89810024D01*
X90045723Y-90027997D01*
X90045723Y-90028002D01*
X86037001Y-90028002D01*
X86109903Y-89871663D01*
X86171063Y-89643408D01*
X86191659Y-89408000D01*
X86171063Y-89172592D01*
X86109903Y-88944337D01*
X86010035Y-88730171D01*
X85905593Y-88581011D01*
X85874494Y-88536597D01*
X85707402Y-88369506D01*
X85707396Y-88369501D01*
X85521842Y-88239575D01*
X85478217Y-88184998D01*
X85471023Y-88115500D01*
X85502546Y-88053145D01*
X85521842Y-88036425D01*
X85584550Y-87992516D01*
X85707401Y-87906495D01*
X85874495Y-87739401D01*
X86010035Y-87545830D01*
X86109903Y-87331663D01*
X86171063Y-87103408D01*
X86180285Y-86998006D01*
X89595700Y-86998006D01*
X89614864Y-87229297D01*
X89614866Y-87229308D01*
X89671842Y-87454300D01*
X89765075Y-87666848D01*
X89892016Y-87861147D01*
X89892019Y-87861151D01*
X89892021Y-87861153D01*
X90049216Y-88031913D01*
X90049219Y-88031915D01*
X90049222Y-88031918D01*
X90232365Y-88174464D01*
X90232371Y-88174468D01*
X90232374Y-88174470D01*
X90436497Y-88284936D01*
X90550487Y-88324068D01*
X90656015Y-88360297D01*
X90656017Y-88360297D01*
X90656019Y-88360298D01*
X90884951Y-88398500D01*
X90884952Y-88398500D01*
X91117048Y-88398500D01*
X91117049Y-88398500D01*
X91345981Y-88360298D01*
X91565503Y-88284936D01*
X91769626Y-88174470D01*
X91952784Y-88031913D01*
X92109979Y-87861153D01*
X92112259Y-87857664D01*
X92169618Y-87769868D01*
X92236924Y-87666849D01*
X92330157Y-87454300D01*
X92387134Y-87229305D01*
X92388283Y-87215441D01*
X92406300Y-86998006D01*
X95045700Y-86998006D01*
X95064864Y-87229297D01*
X95064866Y-87229308D01*
X95121842Y-87454300D01*
X95215075Y-87666848D01*
X95342016Y-87861147D01*
X95342019Y-87861151D01*
X95342021Y-87861153D01*
X95499216Y-88031913D01*
X95499219Y-88031915D01*
X95499222Y-88031918D01*
X95682365Y-88174464D01*
X95682371Y-88174468D01*
X95682374Y-88174470D01*
X95886497Y-88284936D01*
X96000487Y-88324068D01*
X96106015Y-88360297D01*
X96106017Y-88360297D01*
X96106019Y-88360298D01*
X96334951Y-88398500D01*
X96334952Y-88398500D01*
X96567048Y-88398500D01*
X96567049Y-88398500D01*
X96795981Y-88360298D01*
X97015503Y-88284936D01*
X97219626Y-88174470D01*
X97402784Y-88031913D01*
X97559979Y-87861153D01*
X97562259Y-87857664D01*
X97619618Y-87769868D01*
X97686924Y-87666849D01*
X97780157Y-87454300D01*
X97837134Y-87229305D01*
X97838283Y-87215441D01*
X97856300Y-86998006D01*
X97856300Y-86997993D01*
X97837135Y-86766702D01*
X97837133Y-86766691D01*
X97780157Y-86541699D01*
X97686924Y-86329151D01*
X97559983Y-86134852D01*
X97559980Y-86134849D01*
X97559979Y-86134847D01*
X97402784Y-85964087D01*
X97402779Y-85964083D01*
X97402777Y-85964081D01*
X97219634Y-85821535D01*
X97219628Y-85821531D01*
X97015504Y-85711064D01*
X97015495Y-85711061D01*
X96795984Y-85635702D01*
X96624282Y-85607050D01*
X96567049Y-85597500D01*
X96334951Y-85597500D01*
X96289164Y-85605140D01*
X96106015Y-85635702D01*
X95886504Y-85711061D01*
X95886495Y-85711064D01*
X95682371Y-85821531D01*
X95682365Y-85821535D01*
X95499222Y-85964081D01*
X95499219Y-85964084D01*
X95499216Y-85964086D01*
X95499216Y-85964087D01*
X95469289Y-85996597D01*
X95342016Y-86134852D01*
X95215075Y-86329151D01*
X95121842Y-86541699D01*
X95064866Y-86766691D01*
X95064864Y-86766702D01*
X95045700Y-86997993D01*
X95045700Y-86998006D01*
X92406300Y-86998006D01*
X92406300Y-86997993D01*
X92387135Y-86766702D01*
X92387133Y-86766691D01*
X92330157Y-86541699D01*
X92236924Y-86329151D01*
X92109983Y-86134852D01*
X92109980Y-86134849D01*
X92109979Y-86134847D01*
X91952784Y-85964087D01*
X91952779Y-85964083D01*
X91952777Y-85964081D01*
X91769634Y-85821535D01*
X91769628Y-85821531D01*
X91565504Y-85711064D01*
X91565495Y-85711061D01*
X91345984Y-85635702D01*
X91174282Y-85607050D01*
X91117049Y-85597500D01*
X90884951Y-85597500D01*
X90839164Y-85605140D01*
X90656015Y-85635702D01*
X90436504Y-85711061D01*
X90436495Y-85711064D01*
X90232371Y-85821531D01*
X90232365Y-85821535D01*
X90049222Y-85964081D01*
X90049219Y-85964084D01*
X90049216Y-85964086D01*
X90049216Y-85964087D01*
X90019289Y-85996597D01*
X89892016Y-86134852D01*
X89765075Y-86329151D01*
X89671842Y-86541699D01*
X89614866Y-86766691D01*
X89614864Y-86766702D01*
X89595700Y-86997993D01*
X89595700Y-86998006D01*
X86180285Y-86998006D01*
X86191659Y-86868000D01*
X86171063Y-86632592D01*
X86109903Y-86404337D01*
X86010035Y-86190171D01*
X85982681Y-86151104D01*
X85874494Y-85996597D01*
X85707402Y-85829506D01*
X85707395Y-85829501D01*
X85696018Y-85821535D01*
X85668521Y-85802281D01*
X85513834Y-85693967D01*
X85513830Y-85693965D01*
X85486436Y-85681191D01*
X85299663Y-85594097D01*
X85299659Y-85594096D01*
X85299655Y-85594094D01*
X85071413Y-85532938D01*
X85071403Y-85532936D01*
X84836001Y-85512341D01*
X84835999Y-85512341D01*
X84600596Y-85532936D01*
X84600586Y-85532938D01*
X84372344Y-85594094D01*
X84372335Y-85594098D01*
X84158171Y-85693964D01*
X84158169Y-85693965D01*
X83964597Y-85829505D01*
X83797505Y-85996597D01*
X83661965Y-86190169D01*
X83661964Y-86190171D01*
X83562098Y-86404335D01*
X83562094Y-86404344D01*
X83500938Y-86632586D01*
X83500936Y-86632596D01*
X83480341Y-86867999D01*
X83480341Y-86868000D01*
X83500936Y-87103403D01*
X83500938Y-87103413D01*
X83562094Y-87331655D01*
X83562096Y-87331659D01*
X83562097Y-87331663D01*
X83661965Y-87545830D01*
X83661967Y-87545834D01*
X83797501Y-87739395D01*
X83797506Y-87739402D01*
X83964597Y-87906493D01*
X83964603Y-87906498D01*
X84150158Y-88036425D01*
X84193783Y-88091002D01*
X84200977Y-88160500D01*
X84169454Y-88222855D01*
X84150158Y-88239575D01*
X83964597Y-88369505D01*
X83797505Y-88536597D01*
X83661965Y-88730169D01*
X83661964Y-88730171D01*
X83562098Y-88944335D01*
X83562094Y-88944344D01*
X83500938Y-89172586D01*
X83500936Y-89172596D01*
X83480341Y-89407999D01*
X83480341Y-89408000D01*
X83500936Y-89643403D01*
X83500938Y-89643413D01*
X83562094Y-89871655D01*
X83562096Y-89871659D01*
X83562097Y-89871663D01*
X83648775Y-90057544D01*
X83661965Y-90085830D01*
X83661967Y-90085834D01*
X83731502Y-90185139D01*
X83797501Y-90279396D01*
X83797506Y-90279402D01*
X83919430Y-90401326D01*
X83952915Y-90462649D01*
X83947931Y-90532341D01*
X83906059Y-90588274D01*
X83875083Y-90605189D01*
X83743669Y-90654203D01*
X83743664Y-90654206D01*
X83628455Y-90740452D01*
X83628452Y-90740455D01*
X83542206Y-90855664D01*
X83542202Y-90855671D01*
X83491908Y-90990517D01*
X83485501Y-91050116D01*
X83485501Y-91050123D01*
X83485500Y-91050135D01*
X83485500Y-92845870D01*
X83485501Y-92845876D01*
X83491908Y-92905483D01*
X83542202Y-93040328D01*
X83542206Y-93040335D01*
X83628452Y-93155544D01*
X83628455Y-93155547D01*
X83743664Y-93241793D01*
X83743671Y-93241797D01*
X83875081Y-93290810D01*
X83931015Y-93332681D01*
X83955432Y-93398145D01*
X83940580Y-93466418D01*
X83919430Y-93494673D01*
X83797503Y-93616600D01*
X83661965Y-93810169D01*
X83661964Y-93810171D01*
X83562098Y-94024335D01*
X83562094Y-94024344D01*
X83500938Y-94252586D01*
X83500936Y-94252596D01*
X83480341Y-94487999D01*
X83480341Y-94488000D01*
X83500936Y-94723403D01*
X83500938Y-94723413D01*
X83562094Y-94951655D01*
X83562096Y-94951659D01*
X83562097Y-94951663D01*
X83589896Y-95011277D01*
X83661965Y-95165830D01*
X83661967Y-95165834D01*
X83797501Y-95359395D01*
X83797506Y-95359402D01*
X83964597Y-95526493D01*
X83964603Y-95526498D01*
X84150158Y-95656425D01*
X84193783Y-95711002D01*
X84200977Y-95780500D01*
X84169454Y-95842855D01*
X84150158Y-95859575D01*
X83964597Y-95989505D01*
X83797505Y-96156597D01*
X83661965Y-96350169D01*
X83661964Y-96350171D01*
X83562098Y-96564335D01*
X83562094Y-96564344D01*
X83500938Y-96792586D01*
X83500936Y-96792596D01*
X83480341Y-97027999D01*
X83480341Y-97028000D01*
X83500936Y-97263403D01*
X83500938Y-97263413D01*
X83562094Y-97491655D01*
X83562096Y-97491659D01*
X83562097Y-97491663D01*
X83616337Y-97607981D01*
X83661965Y-97705830D01*
X83661967Y-97705834D01*
X83797501Y-97899395D01*
X83797506Y-97899402D01*
X83964597Y-98066493D01*
X83964603Y-98066498D01*
X84150158Y-98196425D01*
X84193783Y-98251002D01*
X84200977Y-98320500D01*
X84169454Y-98382855D01*
X84150158Y-98399575D01*
X83964597Y-98529505D01*
X83797505Y-98696597D01*
X83661965Y-98890169D01*
X83661964Y-98890171D01*
X83562098Y-99104335D01*
X83562094Y-99104344D01*
X83500938Y-99332586D01*
X83500936Y-99332596D01*
X83480341Y-99567999D01*
X83480341Y-99568000D01*
X83500936Y-99803403D01*
X83500938Y-99803413D01*
X83562094Y-100031655D01*
X83562096Y-100031659D01*
X83562097Y-100031663D01*
X83578668Y-100067199D01*
X83661965Y-100245830D01*
X83661967Y-100245834D01*
X83797501Y-100439395D01*
X83797506Y-100439402D01*
X83964597Y-100606493D01*
X83964603Y-100606498D01*
X84150158Y-100736425D01*
X84193783Y-100791002D01*
X84200977Y-100860500D01*
X84169454Y-100922855D01*
X84150158Y-100939575D01*
X83964597Y-101069505D01*
X83797505Y-101236597D01*
X83661965Y-101430169D01*
X83661964Y-101430171D01*
X83562098Y-101644335D01*
X83562094Y-101644344D01*
X83500938Y-101872586D01*
X83500936Y-101872596D01*
X83480341Y-102107999D01*
X83480341Y-102108000D01*
X83500936Y-102343403D01*
X83500938Y-102343413D01*
X83562094Y-102571655D01*
X83562096Y-102571659D01*
X83562097Y-102571663D01*
X83661965Y-102785830D01*
X83661967Y-102785834D01*
X83763521Y-102930867D01*
X83797501Y-102979396D01*
X83797506Y-102979402D01*
X83919818Y-103101714D01*
X83953303Y-103163037D01*
X83948319Y-103232729D01*
X83906447Y-103288662D01*
X83875471Y-103305577D01*
X83743912Y-103354646D01*
X83743906Y-103354649D01*
X83628812Y-103440809D01*
X83628809Y-103440812D01*
X83542649Y-103555906D01*
X83542645Y-103555913D01*
X83492403Y-103690620D01*
X83492401Y-103690627D01*
X83486000Y-103750155D01*
X83486000Y-104398000D01*
X84391440Y-104398000D01*
X84360755Y-104451147D01*
X84326000Y-104580857D01*
X84326000Y-104715143D01*
X84360755Y-104844853D01*
X84391440Y-104898000D01*
X83486000Y-104898000D01*
X83486000Y-105545844D01*
X83492401Y-105605372D01*
X83492403Y-105605379D01*
X83542645Y-105740086D01*
X83542649Y-105740093D01*
X83628809Y-105855187D01*
X83628812Y-105855190D01*
X83743906Y-105941350D01*
X83743913Y-105941354D01*
X83875470Y-105990421D01*
X83931403Y-106032292D01*
X83955821Y-106097756D01*
X83940970Y-106166029D01*
X83919819Y-106194284D01*
X83797503Y-106316600D01*
X83661965Y-106510169D01*
X83661964Y-106510171D01*
X83562098Y-106724335D01*
X83562094Y-106724344D01*
X83500938Y-106952586D01*
X83500936Y-106952596D01*
X83480341Y-107187999D01*
X83480341Y-107188000D01*
X83500936Y-107423403D01*
X83500938Y-107423413D01*
X83562094Y-107651655D01*
X83562096Y-107651659D01*
X83562097Y-107651663D01*
X83564178Y-107656125D01*
X83661965Y-107865830D01*
X83661967Y-107865834D01*
X83797501Y-108059395D01*
X83797506Y-108059402D01*
X83964597Y-108226493D01*
X83964603Y-108226498D01*
X84150158Y-108356425D01*
X84193783Y-108411002D01*
X84200977Y-108480500D01*
X84169454Y-108542855D01*
X84150158Y-108559575D01*
X83964597Y-108689505D01*
X83797505Y-108856597D01*
X83661965Y-109050169D01*
X83661964Y-109050171D01*
X83562098Y-109264335D01*
X83562094Y-109264344D01*
X83500938Y-109492586D01*
X83500936Y-109492596D01*
X83480341Y-109727999D01*
X83480341Y-109728000D01*
X83500936Y-109963403D01*
X83500938Y-109963413D01*
X83562094Y-110191655D01*
X83562096Y-110191659D01*
X83562097Y-110191663D01*
X83661965Y-110405830D01*
X83661967Y-110405834D01*
X83797501Y-110599395D01*
X83797506Y-110599402D01*
X83964597Y-110766493D01*
X83964603Y-110766498D01*
X84150158Y-110896425D01*
X84193783Y-110951002D01*
X84200977Y-111020500D01*
X84169454Y-111082855D01*
X84150158Y-111099575D01*
X83964597Y-111229505D01*
X83797505Y-111396597D01*
X83661965Y-111590169D01*
X83661964Y-111590171D01*
X83562098Y-111804335D01*
X83562094Y-111804344D01*
X83500938Y-112032586D01*
X83500936Y-112032596D01*
X83480341Y-112267999D01*
X83480341Y-112268000D01*
X83500936Y-112503403D01*
X83500938Y-112503413D01*
X83562094Y-112731655D01*
X83562096Y-112731659D01*
X83562097Y-112731663D01*
X83661965Y-112945830D01*
X83661967Y-112945834D01*
X83797501Y-113139395D01*
X83797506Y-113139402D01*
X83964597Y-113306493D01*
X83964603Y-113306498D01*
X84150158Y-113436425D01*
X84193783Y-113491002D01*
X84200977Y-113560500D01*
X84169454Y-113622855D01*
X84150158Y-113639575D01*
X83964597Y-113769505D01*
X83797505Y-113936597D01*
X83661965Y-114130169D01*
X83661964Y-114130171D01*
X83562098Y-114344335D01*
X83562094Y-114344344D01*
X83500938Y-114572586D01*
X83500936Y-114572596D01*
X83480341Y-114807999D01*
X83480341Y-114808000D01*
X83500936Y-115043403D01*
X83500938Y-115043413D01*
X83562094Y-115271655D01*
X83562099Y-115271669D01*
X83635729Y-115429569D01*
X83646221Y-115498646D01*
X83617701Y-115562430D01*
X83585348Y-115589359D01*
X83571290Y-115597475D01*
X83571282Y-115597481D01*
X83540583Y-115628181D01*
X83479260Y-115661666D01*
X83452902Y-115664500D01*
X78259586Y-115664500D01*
X78192547Y-115644815D01*
X78146792Y-115592011D01*
X78136010Y-115530260D01*
X78145643Y-115414005D01*
X78145643Y-115413994D01*
X78125109Y-115166187D01*
X78125107Y-115166175D01*
X78064063Y-114925118D01*
X77964173Y-114697393D01*
X77828166Y-114489217D01*
X77764999Y-114420600D01*
X77659744Y-114306262D01*
X77463509Y-114153526D01*
X77463507Y-114153525D01*
X77463506Y-114153524D01*
X77244811Y-114035172D01*
X77244802Y-114035169D01*
X77009616Y-113954429D01*
X76764335Y-113913500D01*
X76515665Y-113913500D01*
X76270383Y-113954429D01*
X76035197Y-114035169D01*
X76035188Y-114035172D01*
X75816493Y-114153524D01*
X75620255Y-114306262D01*
X75620250Y-114306267D01*
X75606227Y-114321500D01*
X75546339Y-114357489D01*
X75476501Y-114355387D01*
X75423773Y-114321500D01*
X75409749Y-114306267D01*
X75409744Y-114306262D01*
X75213506Y-114153524D01*
X74994811Y-114035172D01*
X74994802Y-114035169D01*
X74759616Y-113954429D01*
X74514335Y-113913500D01*
X74265665Y-113913500D01*
X74020383Y-113954429D01*
X73785197Y-114035169D01*
X73785188Y-114035172D01*
X73566493Y-114153524D01*
X73370257Y-114306261D01*
X73201833Y-114489217D01*
X73065826Y-114697393D01*
X72965936Y-114925118D01*
X72904892Y-115166175D01*
X72904890Y-115166187D01*
X72884357Y-115413994D01*
X72884357Y-115414005D01*
X72893990Y-115530260D01*
X72879909Y-115598696D01*
X72831064Y-115648655D01*
X72770414Y-115664500D01*
X62643097Y-115664500D01*
X62576058Y-115644815D01*
X62555416Y-115628181D01*
X57801010Y-110873775D01*
X57767525Y-110812452D01*
X57772509Y-110742760D01*
X57776493Y-110733297D01*
X57777637Y-110730867D01*
X57908922Y-110451873D01*
X58004206Y-110158619D01*
X58061984Y-109855736D01*
X58061985Y-109855725D01*
X58081345Y-109548005D01*
X58081345Y-109547994D01*
X58061985Y-109240274D01*
X58061984Y-109240267D01*
X58061984Y-109240264D01*
X58004206Y-108937381D01*
X57908922Y-108644127D01*
X57821337Y-108458000D01*
X57777637Y-108365132D01*
X57777633Y-108365126D01*
X57612422Y-108104793D01*
X57612420Y-108104791D01*
X57612416Y-108104784D01*
X57415869Y-107867201D01*
X57191096Y-107656124D01*
X57191093Y-107656122D01*
X57191087Y-107656117D01*
X56941651Y-107474891D01*
X56941644Y-107474886D01*
X56941640Y-107474884D01*
X56671435Y-107326337D01*
X56671432Y-107326335D01*
X56671427Y-107326333D01*
X56671426Y-107326332D01*
X56384746Y-107212828D01*
X56384743Y-107212827D01*
X56086089Y-107136146D01*
X56086076Y-107136144D01*
X55780183Y-107097500D01*
X55780172Y-107097500D01*
X55471828Y-107097500D01*
X55471816Y-107097500D01*
X55165923Y-107136144D01*
X55165910Y-107136146D01*
X54867256Y-107212827D01*
X54867253Y-107212828D01*
X54580573Y-107326332D01*
X54580572Y-107326333D01*
X54310360Y-107474884D01*
X54310348Y-107474891D01*
X54060912Y-107656117D01*
X54060902Y-107656125D01*
X53836132Y-107867199D01*
X53719177Y-108008572D01*
X53677128Y-108059402D01*
X53639577Y-108104793D01*
X53474366Y-108365126D01*
X53474362Y-108365132D01*
X53343080Y-108644120D01*
X53343078Y-108644125D01*
X53247795Y-108937376D01*
X53190015Y-109240267D01*
X53190014Y-109240274D01*
X53170655Y-109547994D01*
X53170655Y-109548005D01*
X49530000Y-109548005D01*
X49530000Y-101748005D01*
X53170655Y-101748005D01*
X53190014Y-102055725D01*
X53190015Y-102055732D01*
X53190016Y-102055736D01*
X53244893Y-102343413D01*
X53247795Y-102358623D01*
X53343078Y-102651874D01*
X53343080Y-102651879D01*
X53474362Y-102930867D01*
X53474366Y-102930873D01*
X53639577Y-103191206D01*
X53639579Y-103191209D01*
X53639584Y-103191216D01*
X53797335Y-103381903D01*
X53836132Y-103428800D01*
X53873253Y-103463659D01*
X53971485Y-103555906D01*
X54060902Y-103639874D01*
X54060912Y-103639882D01*
X54310348Y-103821108D01*
X54310353Y-103821110D01*
X54310360Y-103821116D01*
X54580565Y-103969663D01*
X54580570Y-103969665D01*
X54580572Y-103969666D01*
X54580573Y-103969667D01*
X54867253Y-104083171D01*
X54867256Y-104083172D01*
X55080798Y-104138000D01*
X55165914Y-104159854D01*
X55230091Y-104167961D01*
X55471816Y-104198499D01*
X55471825Y-104198499D01*
X55471828Y-104198500D01*
X55471830Y-104198500D01*
X55780170Y-104198500D01*
X55780172Y-104198500D01*
X55780175Y-104198499D01*
X55780183Y-104198499D01*
X55983964Y-104172755D01*
X56086086Y-104159854D01*
X56384743Y-104083172D01*
X56384746Y-104083171D01*
X56671426Y-103969667D01*
X56671427Y-103969666D01*
X56671425Y-103969666D01*
X56671435Y-103969663D01*
X56941640Y-103821116D01*
X57191096Y-103639876D01*
X57415869Y-103428799D01*
X57612416Y-103191216D01*
X57777635Y-102930871D01*
X57908922Y-102651873D01*
X58004206Y-102358619D01*
X58061984Y-102055736D01*
X58073506Y-101872596D01*
X58081345Y-101748005D01*
X58081345Y-101747994D01*
X58061985Y-101440274D01*
X58061984Y-101440267D01*
X58061984Y-101440264D01*
X58004206Y-101137381D01*
X57908922Y-100844127D01*
X57895451Y-100815500D01*
X57777637Y-100565132D01*
X57777633Y-100565126D01*
X57612422Y-100304793D01*
X57612420Y-100304791D01*
X57612416Y-100304784D01*
X57415869Y-100067201D01*
X57191096Y-99856124D01*
X57191093Y-99856122D01*
X57191087Y-99856117D01*
X56941651Y-99674891D01*
X56941644Y-99674886D01*
X56941640Y-99674884D01*
X56671435Y-99526337D01*
X56671432Y-99526335D01*
X56671427Y-99526333D01*
X56671426Y-99526332D01*
X56384746Y-99412828D01*
X56384743Y-99412827D01*
X56086089Y-99336146D01*
X56086076Y-99336144D01*
X55780183Y-99297500D01*
X55780172Y-99297500D01*
X55471828Y-99297500D01*
X55471816Y-99297500D01*
X55165923Y-99336144D01*
X55165910Y-99336146D01*
X54867256Y-99412827D01*
X54867253Y-99412828D01*
X54580573Y-99526332D01*
X54580572Y-99526333D01*
X54310360Y-99674884D01*
X54310348Y-99674891D01*
X54060912Y-99856117D01*
X54060902Y-99856125D01*
X53836132Y-100067199D01*
X53639577Y-100304793D01*
X53474366Y-100565126D01*
X53474362Y-100565132D01*
X53343080Y-100844120D01*
X53343078Y-100844125D01*
X53247795Y-101137376D01*
X53190015Y-101440267D01*
X53190014Y-101440274D01*
X53170655Y-101747994D01*
X53170655Y-101748005D01*
X49530000Y-101748005D01*
X49530000Y-96414004D01*
X66884592Y-96414004D01*
X66904196Y-96675620D01*
X66904197Y-96675625D01*
X66962576Y-96931402D01*
X66962578Y-96931411D01*
X66962580Y-96931416D01*
X67058432Y-97175643D01*
X67189614Y-97402857D01*
X67321736Y-97568533D01*
X67353198Y-97607985D01*
X67534753Y-97776441D01*
X67545521Y-97786433D01*
X67762296Y-97934228D01*
X67762301Y-97934230D01*
X67762302Y-97934231D01*
X67762303Y-97934232D01*
X67887843Y-97994688D01*
X67998673Y-98048061D01*
X67998674Y-98048061D01*
X67998677Y-98048063D01*
X68249385Y-98125396D01*
X68508818Y-98164500D01*
X68771182Y-98164500D01*
X69030615Y-98125396D01*
X69281323Y-98048063D01*
X69517704Y-97934228D01*
X69734479Y-97786433D01*
X69926805Y-97607981D01*
X70090386Y-97402857D01*
X70221568Y-97175643D01*
X70317420Y-96931416D01*
X70375802Y-96675630D01*
X70375808Y-96675550D01*
X70395408Y-96414004D01*
X74385093Y-96414004D01*
X74404692Y-96675545D01*
X74404693Y-96675550D01*
X74463058Y-96931270D01*
X74558883Y-97175426D01*
X74558882Y-97175426D01*
X74690027Y-97402573D01*
X74737874Y-97462571D01*
X75538958Y-96661488D01*
X75563978Y-96721890D01*
X75635112Y-96828351D01*
X75725649Y-96918888D01*
X75832110Y-96990022D01*
X75892510Y-97015041D01*
X75090830Y-97816720D01*
X75262546Y-97933793D01*
X75262550Y-97933795D01*
X75498854Y-98047594D01*
X75498858Y-98047595D01*
X75749494Y-98124907D01*
X75749500Y-98124909D01*
X76008848Y-98163999D01*
X76008857Y-98164000D01*
X76271143Y-98164000D01*
X76271151Y-98163999D01*
X76530499Y-98124909D01*
X76530505Y-98124907D01*
X76781143Y-98047595D01*
X77017445Y-97933798D01*
X77017447Y-97933797D01*
X77189168Y-97816720D01*
X76387488Y-97015041D01*
X76447890Y-96990022D01*
X76554351Y-96918888D01*
X76644888Y-96828351D01*
X76716022Y-96721890D01*
X76741041Y-96661488D01*
X77542125Y-97462572D01*
X77589971Y-97402573D01*
X77721116Y-97175426D01*
X77816941Y-96931270D01*
X77875306Y-96675550D01*
X77875307Y-96675545D01*
X77894907Y-96414004D01*
X77894907Y-96413995D01*
X77875307Y-96152449D01*
X77816941Y-95896729D01*
X77721116Y-95652573D01*
X77721117Y-95652573D01*
X77589972Y-95425426D01*
X77542124Y-95365427D01*
X76741041Y-96166510D01*
X76716022Y-96106110D01*
X76644888Y-95999649D01*
X76554351Y-95909112D01*
X76447890Y-95837978D01*
X76387488Y-95812958D01*
X77189168Y-95011278D01*
X77017454Y-94894206D01*
X77017445Y-94894201D01*
X76781142Y-94780404D01*
X76781144Y-94780404D01*
X76530505Y-94703092D01*
X76530499Y-94703090D01*
X76271151Y-94664000D01*
X76008848Y-94664000D01*
X75749500Y-94703090D01*
X75749494Y-94703092D01*
X75498858Y-94780404D01*
X75498854Y-94780405D01*
X75262547Y-94894205D01*
X75262539Y-94894210D01*
X75090830Y-95011277D01*
X75892511Y-95812958D01*
X75832110Y-95837978D01*
X75725649Y-95909112D01*
X75635112Y-95999649D01*
X75563978Y-96106110D01*
X75538958Y-96166510D01*
X74737875Y-95365427D01*
X74737874Y-95365427D01*
X74690028Y-95425425D01*
X74558883Y-95652573D01*
X74463058Y-95896729D01*
X74404693Y-96152449D01*
X74385093Y-96413995D01*
X74385093Y-96414004D01*
X70395408Y-96414004D01*
X70395408Y-96413995D01*
X70375803Y-96152379D01*
X70375802Y-96152374D01*
X70375802Y-96152370D01*
X70317420Y-95896584D01*
X70221568Y-95652357D01*
X70090386Y-95425143D01*
X69926805Y-95220019D01*
X69926804Y-95220018D01*
X69926801Y-95220014D01*
X69734479Y-95041567D01*
X69670578Y-94998000D01*
X69517704Y-94893772D01*
X69517700Y-94893770D01*
X69517697Y-94893768D01*
X69517696Y-94893767D01*
X69281325Y-94779938D01*
X69281327Y-94779938D01*
X69030623Y-94702606D01*
X69030619Y-94702605D01*
X69030615Y-94702604D01*
X68905823Y-94683794D01*
X68771187Y-94663500D01*
X68771182Y-94663500D01*
X68508818Y-94663500D01*
X68508812Y-94663500D01*
X68347247Y-94687853D01*
X68249385Y-94702604D01*
X68249382Y-94702605D01*
X68249376Y-94702606D01*
X67998673Y-94779938D01*
X67762303Y-94893767D01*
X67762302Y-94893768D01*
X67762296Y-94893771D01*
X67762296Y-94893772D01*
X67761654Y-94894210D01*
X67545520Y-95041567D01*
X67353198Y-95220014D01*
X67189614Y-95425143D01*
X67058432Y-95652356D01*
X66962582Y-95896578D01*
X66962576Y-95896597D01*
X66904197Y-96152374D01*
X66904196Y-96152379D01*
X66884592Y-96413995D01*
X66884592Y-96414004D01*
X49530000Y-96414004D01*
X49530000Y-93948005D01*
X53171156Y-93948005D01*
X53190511Y-94255663D01*
X53190512Y-94255670D01*
X53248280Y-94558499D01*
X53343544Y-94851689D01*
X53343546Y-94851694D01*
X53474802Y-95130626D01*
X53474805Y-95130632D01*
X53639987Y-95390919D01*
X53639990Y-95390923D01*
X53725799Y-95494647D01*
X54727378Y-94493068D01*
X54810411Y-94617336D01*
X54956664Y-94763589D01*
X55080930Y-94846621D01*
X54076767Y-95850783D01*
X54076768Y-95850785D01*
X54310617Y-96020685D01*
X54310635Y-96020697D01*
X54580778Y-96169209D01*
X54580786Y-96169213D01*
X54867406Y-96282693D01*
X55166008Y-96359361D01*
X55166017Y-96359363D01*
X55471847Y-96397999D01*
X55471861Y-96398000D01*
X55780139Y-96398000D01*
X55780152Y-96397999D01*
X56085982Y-96359363D01*
X56085991Y-96359361D01*
X56384593Y-96282693D01*
X56671213Y-96169213D01*
X56671221Y-96169209D01*
X56941364Y-96020697D01*
X56941382Y-96020685D01*
X57175230Y-95850785D01*
X57175231Y-95850783D01*
X56171068Y-94846621D01*
X56295336Y-94763589D01*
X56441589Y-94617336D01*
X56524621Y-94493069D01*
X57526199Y-95494647D01*
X57612014Y-95390916D01*
X57777194Y-95130632D01*
X57777197Y-95130626D01*
X57908453Y-94851694D01*
X57908455Y-94851689D01*
X58003719Y-94558499D01*
X58061487Y-94255670D01*
X58061488Y-94255663D01*
X58080844Y-93948005D01*
X58080844Y-93947994D01*
X58061488Y-93640336D01*
X58061487Y-93640329D01*
X58003719Y-93337500D01*
X57908455Y-93044310D01*
X57908453Y-93044305D01*
X57777197Y-92765373D01*
X57777194Y-92765367D01*
X57612017Y-92505088D01*
X57526198Y-92401351D01*
X56524620Y-93402930D01*
X56441589Y-93278664D01*
X56295336Y-93132411D01*
X56171068Y-93049378D01*
X57175231Y-92045215D01*
X57175230Y-92045214D01*
X56941382Y-91875314D01*
X56941364Y-91875302D01*
X56671221Y-91726790D01*
X56671213Y-91726786D01*
X56384593Y-91613306D01*
X56085991Y-91536638D01*
X56085982Y-91536636D01*
X55780152Y-91498000D01*
X55471847Y-91498000D01*
X55166017Y-91536636D01*
X55166008Y-91536638D01*
X54867406Y-91613306D01*
X54580786Y-91726786D01*
X54580778Y-91726790D01*
X54310632Y-91875304D01*
X54310627Y-91875307D01*
X54076768Y-92045214D01*
X54076768Y-92045215D01*
X55080931Y-93049378D01*
X54956664Y-93132411D01*
X54810411Y-93278664D01*
X54727378Y-93402930D01*
X53725799Y-92401351D01*
X53639985Y-92505083D01*
X53474805Y-92765367D01*
X53474802Y-92765373D01*
X53343546Y-93044305D01*
X53343544Y-93044310D01*
X53248280Y-93337500D01*
X53190512Y-93640329D01*
X53190511Y-93640336D01*
X53171156Y-93947994D01*
X53171156Y-93948005D01*
X49530000Y-93948005D01*
X49530000Y-88790793D01*
X49549685Y-88723754D01*
X49602489Y-88677999D01*
X49671647Y-88668055D01*
X49735203Y-88697080D01*
X49767859Y-88741679D01*
X49814107Y-88848895D01*
X49814113Y-88848908D01*
X49988870Y-89151597D01*
X50197584Y-89431949D01*
X50197589Y-89431955D01*
X50242114Y-89479148D01*
X50437442Y-89686183D01*
X50585029Y-89810023D01*
X50705186Y-89910847D01*
X50705194Y-89910853D01*
X50997203Y-90102911D01*
X50997207Y-90102913D01*
X51309549Y-90259777D01*
X51637989Y-90379319D01*
X51978086Y-90459923D01*
X52325241Y-90500500D01*
X52325248Y-90500500D01*
X52674752Y-90500500D01*
X52674759Y-90500500D01*
X53021914Y-90459923D01*
X53362011Y-90379319D01*
X53690451Y-90259777D01*
X54002793Y-90102913D01*
X54294811Y-89910849D01*
X54489042Y-89747870D01*
X67827500Y-89747870D01*
X67827501Y-89747876D01*
X67833908Y-89807483D01*
X67884202Y-89942328D01*
X67884206Y-89942335D01*
X67970452Y-90057544D01*
X67970455Y-90057547D01*
X68085664Y-90143793D01*
X68085671Y-90143797D01*
X68220517Y-90194091D01*
X68220516Y-90194091D01*
X68227444Y-90194835D01*
X68280127Y-90200500D01*
X69975872Y-90200499D01*
X70035483Y-90194091D01*
X70170331Y-90143796D01*
X70285546Y-90057546D01*
X70371796Y-89942331D01*
X70422091Y-89807483D01*
X70428500Y-89747873D01*
X70428499Y-89747845D01*
X70428678Y-89744547D01*
X70430183Y-89744627D01*
X70448112Y-89683326D01*
X70500868Y-89637514D01*
X70544465Y-89629981D01*
X71228000Y-88946446D01*
X71228000Y-88952661D01*
X71255259Y-89054394D01*
X71307920Y-89145606D01*
X71382394Y-89220080D01*
X71473606Y-89272741D01*
X71575339Y-89300000D01*
X71581553Y-89300000D01*
X70902526Y-89979025D01*
X70975513Y-90030132D01*
X70975521Y-90030136D01*
X71181668Y-90126264D01*
X71181682Y-90126269D01*
X71401389Y-90185139D01*
X71401400Y-90185141D01*
X71627998Y-90204966D01*
X71628002Y-90204966D01*
X71854599Y-90185141D01*
X71854610Y-90185139D01*
X72074317Y-90126269D01*
X72074331Y-90126264D01*
X72280478Y-90030136D01*
X72353471Y-89979024D01*
X71674447Y-89300000D01*
X71680661Y-89300000D01*
X71782394Y-89272741D01*
X71873606Y-89220080D01*
X71948080Y-89145606D01*
X72000741Y-89054394D01*
X72028000Y-88952661D01*
X72028000Y-88946447D01*
X72707024Y-89625471D01*
X72758136Y-89552478D01*
X72854264Y-89346331D01*
X72854269Y-89346317D01*
X72913139Y-89126610D01*
X72913141Y-89126599D01*
X72932966Y-88900002D01*
X72932966Y-88899997D01*
X72913141Y-88673400D01*
X72913139Y-88673389D01*
X72854269Y-88453682D01*
X72854264Y-88453668D01*
X72758136Y-88247521D01*
X72758132Y-88247513D01*
X72707025Y-88174526D01*
X72028000Y-88853551D01*
X72028000Y-88847339D01*
X72000741Y-88745606D01*
X71948080Y-88654394D01*
X71873606Y-88579920D01*
X71782394Y-88527259D01*
X71680661Y-88500000D01*
X71674448Y-88500000D01*
X72353472Y-87820974D01*
X72280478Y-87769863D01*
X72074331Y-87673735D01*
X72074317Y-87673730D01*
X71854610Y-87614860D01*
X71854599Y-87614858D01*
X71628002Y-87595034D01*
X71627998Y-87595034D01*
X71401400Y-87614858D01*
X71401389Y-87614860D01*
X71181682Y-87673730D01*
X71181673Y-87673734D01*
X70975516Y-87769866D01*
X70975512Y-87769868D01*
X70902526Y-87820973D01*
X70902526Y-87820974D01*
X71581553Y-88500000D01*
X71575339Y-88500000D01*
X71473606Y-88527259D01*
X71382394Y-88579920D01*
X71307920Y-88654394D01*
X71255259Y-88745606D01*
X71228000Y-88847339D01*
X71228000Y-88853552D01*
X70543799Y-88169351D01*
X70494805Y-88159505D01*
X70444622Y-88110889D01*
X70429981Y-88055366D01*
X70428900Y-88055423D01*
X70428854Y-88055429D01*
X70428853Y-88055426D01*
X70428676Y-88055436D01*
X70428499Y-88052135D01*
X70428499Y-88052128D01*
X70422091Y-87992517D01*
X70373095Y-87861153D01*
X70371797Y-87857671D01*
X70371793Y-87857664D01*
X70285547Y-87742455D01*
X70285544Y-87742452D01*
X70170335Y-87656206D01*
X70170328Y-87656202D01*
X70035482Y-87605908D01*
X70035483Y-87605908D01*
X69975883Y-87599501D01*
X69975881Y-87599500D01*
X69975873Y-87599500D01*
X69975864Y-87599500D01*
X68280129Y-87599500D01*
X68280123Y-87599501D01*
X68220516Y-87605908D01*
X68085671Y-87656202D01*
X68085664Y-87656206D01*
X67970455Y-87742452D01*
X67970452Y-87742455D01*
X67884206Y-87857664D01*
X67884202Y-87857671D01*
X67833908Y-87992517D01*
X67829188Y-88036425D01*
X67827501Y-88052123D01*
X67827500Y-88052135D01*
X67827500Y-89747870D01*
X54489042Y-89747870D01*
X54562558Y-89686183D01*
X54802412Y-89431953D01*
X55011130Y-89151596D01*
X55185889Y-88848904D01*
X55324326Y-88527971D01*
X55424569Y-88193136D01*
X55427851Y-88174526D01*
X55485260Y-87848938D01*
X55485259Y-87848938D01*
X55485262Y-87848927D01*
X55505585Y-87500000D01*
X55485262Y-87151073D01*
X55476858Y-87103413D01*
X55424571Y-86806872D01*
X55424569Y-86806865D01*
X55383408Y-86669378D01*
X55324326Y-86472029D01*
X55185889Y-86151096D01*
X55092233Y-85988879D01*
X55011129Y-85848402D01*
X54802415Y-85568050D01*
X54802410Y-85568044D01*
X54686433Y-85445117D01*
X54562558Y-85313817D01*
X54414488Y-85189572D01*
X54294813Y-85089152D01*
X54294805Y-85089146D01*
X54002796Y-84897088D01*
X53690458Y-84740226D01*
X53687141Y-84738795D01*
X53687738Y-84737409D01*
X53636379Y-84699592D01*
X53611447Y-84634322D01*
X53625759Y-84565934D01*
X53674773Y-84516140D01*
X53735057Y-84500500D01*
X90412214Y-84500500D01*
X90412737Y-84500501D01*
G37*
%TD.AperFunction*%
%TD*%
M02*
